<?xml version="1.0" standalone="no"?>
<!DOCTYPE svg PUBLIC "-//W3C//DTD SVG 20010904//EN"
 "http://www.w3.org/TR/2001/REC-SVG-20010904/DTD/svg10.dtd">
<svg version="1.0" xmlns="http://www.w3.org/2000/svg"
 width="400.000000pt" height="400.000000pt" viewBox="0 0 400.000000 400.000000"
 preserveAspectRatio="xMidYMid meet">

<g transform="translate(0.000000,400.000000) scale(0.100000,-0.100000)"
fill="#000000" stroke="none">
<path d="M1703 3824 c-46 -17 -99 -70 -109 -109 -15 -62 22 -136 82 -161 54
-23 151 -18 211 11 65 30 93 71 93 137 0 54 -33 102 -87 124 -42 18 -136 17
-190 -2z m137 -74 c25 -25 27 -95 3 -122 -22 -24 -84 -24 -107 1 -48 53 -18
141 50 141 21 0 42 -8 54 -20z"/>
<path d="M2125 3821 c-60 -28 -78 -53 -83 -119 -4 -52 -1 -61 23 -90 78 -93
245 -105 317 -24 l32 37 -53 9 c-38 7 -58 6 -70 -2 -45 -33 -61 -36 -96 -19
-33 16 -35 20 -35 65 0 57 26 92 68 92 32 0 72 -25 72 -44 0 -13 97 -33 107
-22 3 3 2 17 -1 31 -21 82 -182 132 -281 86z"/>
<path d="M1393 3749 l-43 -20 15 -36 c8 -19 15 -41 15 -47 0 -10 -80 -46 -101
-46 -4 0 -14 18 -23 41 -14 34 -20 39 -38 33 -39 -12 -88 -34 -88 -40 0 -22
105 -254 116 -254 7 0 33 9 58 20 l45 19 -19 43 c-11 24 -20 48 -20 53 0 6 25
20 54 31 l55 22 17 -49 c10 -27 23 -49 30 -49 7 0 33 9 58 20 l46 19 -13 33
c-7 18 -31 77 -53 130 -25 64 -44 97 -54 97 -8 0 -34 -9 -57 -20z"/>
<path d="M2533 3753 c-4 -10 -28 -69 -54 -131 l-48 -113 45 -20 c63 -26 70
-25 88 21 24 61 50 55 71 -17 9 -32 18 -63 20 -69 3 -10 126 -65 132 -60 2 1
-13 49 -32 106 -19 57 -35 107 -35 110 0 3 33 14 73 24 39 11 75 22 79 25 4 4
-19 17 -52 30 l-60 24 -67 -20 c-38 -11 -69 -20 -71 -18 -1 1 5 18 13 38 19
47 20 45 -18 61 -67 27 -77 28 -84 9z"/>
<path d="M2901 3454 c-45 -59 -81 -110 -81 -114 0 -4 55 -49 122 -99 l122 -92
18 23 c10 13 17 26 15 30 -1 4 -34 31 -74 60 -58 44 -69 57 -62 71 14 24 18
22 84 -27 l59 -44 18 23 c10 13 18 25 18 27 0 3 -27 24 -60 48 -64 46 -67 51
-47 68 10 9 30 0 82 -38 39 -28 74 -49 79 -47 5 2 15 12 22 23 13 18 5 26 -97
102 -61 46 -116 85 -124 88 -8 4 -43 -33 -94 -102z"/>
<path d="M1760 3466 c-598 -108 -1056 -528 -1200 -1101 -91 -357 -49 -716 121
-1045 77 -149 162 -262 291 -386 207 -199 445 -325 731 -386 136 -29 415 -31
557 -5 192 36 396 120 569 234 117 77 309 270 390 392 120 182 202 383 237
586 20 119 23 344 5 460 -34 222 -133 469 -262 650 -79 111 -229 261 -336 338
-162 115 -374 208 -573 252 -103 23 -427 29 -530 11z m527 -35 c275 -60 511
-184 710 -374 181 -173 302 -362 378 -590 60 -181 70 -249 70 -472 -1 -180 -4
-211 -27 -311 -169 -718 -826 -1199 -1546 -1134 -353 32 -657 174 -907 425
-209 208 -339 449 -402 745 -26 122 -25 449 1 570 30 137 72 255 137 379 204
395 576 675 1007 761 139 28 150 29 327 25 110 -3 188 -10 252 -24z"/>
<path d="M1760 3405 c-525 -89 -957 -462 -1118 -965 -52 -163 -66 -257 -66
-440 1 -130 5 -187 22 -267 25 -115 71 -251 113 -335 l29 -58 93 -1 c177 -1
271 2 285 10 17 10 139 234 263 485 77 157 86 181 72 191 -22 16 -2 51 39 68
l31 13 -41 12 c-72 22 -57 53 55 112 53 27 66 40 88 83 30 60 31 77 7 108 -12
16 -19 45 -21 86 -2 62 7 87 50 138 9 11 24 44 34 73 24 75 60 115 97 108 35
-7 58 2 58 22 0 8 -3 12 -7 9 -12 -13 -33 15 -33 44 0 17 -7 32 -19 38 -10 6
-24 25 -32 43 -7 18 -19 37 -26 41 -27 17 -14 62 40 130 36 47 76 68 132 70
37 2 50 -4 93 -40 47 -40 53 -42 110 -40 69 1 101 -16 207 -114 33 -31 88 -70
121 -88 83 -44 170 -122 184 -167 8 -23 25 -43 51 -60 22 -14 44 -36 49 -50 6
-14 27 -51 48 -82 74 -108 77 -176 17 -300 -23 -46 -38 -99 -50 -172 -17 -107
-34 -150 -60 -150 -7 0 -17 -5 -20 -10 -5 -7 9 -9 42 -5 26 4 84 2 128 -4 112
-14 223 1 299 39 72 37 102 38 133 4 27 -30 48 -27 48 6 0 23 28 50 40 38 5
-5 44 -225 45 -252 0 -5 2 -7 5 -5 2 3 9 57 15 120 21 240 -25 493 -131 718
-128 274 -378 530 -652 668 -96 48 -284 108 -396 127 -114 19 -362 20 -471 1z"/>
<path d="M1934 2661 c-59 -19 -120 -55 -128 -76 -7 -19 3 -47 21 -58 17 -10
17 -59 -1 -102 -12 -29 -13 -35 0 -46 15 -12 17 -11 79 26 22 14 49 30 61 36
14 7 27 34 42 84 19 64 20 79 9 111 -6 21 -16 38 -22 40 -5 1 -33 -5 -61 -15z"/>
<path d="M1685 2329 c-4 -6 -5 -12 -2 -15 7 -7 37 7 37 17 0 13 -27 11 -35 -2z"/>
<path d="M2170 2285 c-34 -29 -86 -66 -115 -81 -48 -25 -56 -27 -79 -15 -17
10 -44 12 -85 8 -65 -6 -96 -22 -165 -91 -28 -29 -66 -51 -121 -72 l-80 -31
-191 -377 c-106 -208 -200 -383 -210 -391 -14 -11 -55 -14 -166 -15 -82 0
-148 -3 -148 -7 0 -18 122 -162 205 -241 195 -187 432 -310 705 -369 66 -14
128 -18 280 -18 175 1 206 3 307 27 420 99 769 372 957 747 55 110 105 246 94
256 -3 3 -26 1 -52 -6 -50 -12 -76 -2 -76 29 0 22 -48 100 -68 111 -29 15
-129 24 -136 12 -4 -6 -35 -11 -70 -11 -37 0 -70 -6 -81 -14 -17 -13 -17 -15
12 -57 17 -24 42 -65 56 -90 26 -46 70 -89 147 -144 48 -34 71 -72 63 -103 -4
-17 -1 -22 15 -22 30 0 36 -17 11 -31 -27 -14 -160 -38 -215 -39 -32 0 -46 6
-70 31 -28 29 -28 31 -13 58 34 59 -2 107 -151 199 -41 25 -93 60 -115 78 -57
45 -78 54 -127 54 -24 0 -53 7 -64 15 -29 20 -63 103 -68 164 -2 28 -8 57 -13
64 -34 42 -63 185 -63 305 0 128 -23 142 -110 67z"/>
<path d="M3273 1913 c-7 -2 -13 -13 -13 -24 0 -29 60 -143 70 -133 10 11 -8
134 -22 152 -11 13 -15 13 -35 5z"/>
<path d="M3322 1679 c1 -12 9 -24 16 -27 9 -3 13 3 10 19 -1 12 -9 24 -16 27
-9 3 -13 -3 -10 -19z"/>
<path d="M3050 1310 c0 -13 40 -13 60 0 11 7 5 10 -22 10 -21 0 -38 -4 -38
-10z"/>
<path d="M2945 1280 c-7 -12 22 -12 50 0 17 7 15 9 -12 9 -17 1 -35 -3 -38 -9z"/>
<path d="M806 3416 c-39 -34 -39 -34 -23 -60 9 -14 33 -38 52 -53 19 -15 35
-30 35 -33 0 -3 -45 -1 -101 4 l-101 9 -39 -40 -40 -39 99 -104 98 -104 44 40
43 41 -59 58 -59 58 50 -7 c170 -20 156 -22 200 23 l39 41 -39 43 c-91 97
-150 157 -155 157 -3 -1 -23 -16 -44 -34z"/>
<path d="M3296 3310 c-3 -8 -15 -58 -27 -110 -20 -86 -25 -98 -62 -131 l-41
-36 35 -41 c19 -23 39 -42 44 -41 6 0 26 13 45 29 27 24 44 30 80 30 25 0 75
3 112 6 l67 7 -40 49 -41 49 -59 -7 c-33 -4 -59 -4 -59 -2 0 3 7 25 15 49 19
54 15 73 -30 124 -25 29 -35 36 -39 25z"/>
<path d="M421 2961 l-33 -52 49 -77 c91 -142 118 -182 125 -182 4 0 19 21 34
46 21 36 25 50 17 64 -17 25 40 120 72 120 17 0 31 13 53 49 l30 48 -106 12
c-59 7 -130 14 -158 18 l-50 5 -33 -51z m177 -66 c4 -3 -8 -25 -27 -54 -8 -12
-13 -11 -30 10 -12 13 -26 32 -32 43 -10 17 -8 18 37 11 27 -4 50 -8 52 -10z"/>
<path d="M3556 2708 c-71 -27 -131 -50 -133 -51 -4 -5 87 -250 98 -261 5 -6
18 -5 34 2 l25 11 -29 79 -29 78 104 39 c115 42 111 36 75 116 l-16 35 -129
-48z"/>
<path d="M330 2679 c-37 -15 -59 -39 -88 -94 -33 -63 -37 -165 -9 -208 42 -64
131 -86 194 -48 40 25 80 94 95 164 10 47 9 61 -6 101 -10 25 -27 51 -38 57
-24 13 -21 15 -41 -44 -15 -43 -15 -51 -2 -64 41 -40 -8 -132 -63 -119 -52 13
-77 40 -77 82 0 32 5 42 31 59 22 14 36 35 47 67 19 60 12 69 -43 47z"/>
<path d="M3672 2359 c-73 -9 -135 -19 -138 -22 -6 -6 30 -295 38 -302 3 -3 18
-3 33 1 25 6 26 9 21 48 -21 150 -21 146 7 146 24 0 25 -4 32 -70 4 -39 11
-72 16 -75 4 -3 20 -3 34 1 24 6 25 8 18 63 -11 90 -10 96 12 96 18 0 21 -11
32 -85 6 -47 12 -86 12 -87 2 -7 61 -2 61 5 1 27 -34 288 -39 293 -3 3 -66 -2
-139 -12z"/>
<path d="M166 2245 c-3 -9 -6 -36 -6 -60 0 -42 1 -43 38 -49 88 -13 234 -27
239 -23 9 9 16 117 7 117 -13 0 -182 19 -230 25 -33 5 -43 2 -48 -10z"/>
<path d="M376 2045 c-39 -8 -54 -18 -68 -40 -10 -17 -18 -25 -18 -18 0 22 -32
43 -65 43 -56 0 -70 -33 -68 -155 1 -55 5 -120 8 -144 l7 -44 125 8 c69 3 132
9 139 12 10 3 14 23 14 63 l0 58 -52 -2 -53 -1 -3 38 c-4 46 11 67 47 67 44 0
50 10 42 70 l-6 55 -49 -10z m-102 -141 c3 -9 6 -33 6 -55 0 -37 -2 -39 -30
-39 -29 0 -30 1 -30 48 0 27 3 52 7 55 12 13 41 7 47 -9z"/>
<path d="M3564 1954 c-5 -47 -4 -58 10 -66 27 -15 16 -133 -14 -141 -22 -6
-44 -117 -23 -117 4 0 71 21 149 47 l142 47 7 59 c3 33 2 64 -2 68 -10 10
-252 159 -258 159 -2 0 -7 -25 -11 -56z m176 -155 c0 -8 -91 -32 -97 -25 -3 3
-2 21 1 40 l7 35 44 -21 c25 -12 45 -25 45 -29z"/>
<path d="M428 1653 c-23 -6 -23 -14 8 -107 22 -64 24 -80 13 -87 -27 -17 -35
-8 -58 62 -22 68 -24 70 -49 64 -15 -4 -29 -8 -31 -10 -2 -2 6 -32 18 -66 26
-77 26 -89 2 -89 -15 0 -25 18 -48 83 l-28 84 -32 -9 -31 -8 45 -138 c25 -75
49 -140 52 -144 7 -8 248 67 263 81 10 9 -84 291 -97 290 -5 -1 -18 -3 -27 -6z"/>
<path d="M3534 1552 c-58 -37 -96 -107 -96 -179 0 -29 -4 -43 -13 -43 -16 0
-41 -58 -29 -70 5 -4 37 -20 72 -34 l63 -25 8 22 c5 12 19 46 30 76 12 29 20
55 19 56 -2 1 -13 8 -26 14 -19 10 -23 9 -34 -13 -14 -32 -28 -24 -28 15 0 45
51 93 88 84 42 -10 71 -33 78 -62 8 -32 -12 -74 -42 -87 -21 -9 -62 -101 -51
-112 12 -13 78 19 107 52 36 41 56 87 65 147 8 55 -20 127 -60 153 -40 26
-114 29 -151 6z"/>
<path d="M455 1234 c-60 -41 -109 -79 -107 -85 1 -5 18 -34 38 -63 l35 -53 80
19 c44 11 85 18 90 16 5 -2 -13 -34 -41 -73 -27 -38 -50 -73 -50 -77 0 -9 71
-118 77 -118 4 0 214 139 227 151 5 4 -4 27 -20 52 l-28 45 -57 -39 c-32 -21
-61 -43 -64 -49 -3 -5 -10 -10 -16 -10 -5 0 16 34 46 75 l56 75 -22 33 c-12
17 -23 33 -24 35 -1 1 -40 -7 -86 -18 -46 -11 -88 -20 -94 -20 -5 0 26 21 68
46 75 44 78 46 64 67 -8 12 -20 32 -28 45 -8 12 -18 22 -24 21 -5 0 -59 -34
-120 -75z"/>
<path d="M3351 1163 c-32 -6 -113 -91 -140 -146 -23 -47 -27 -97 -11 -127 9
-16 120 -105 166 -133 9 -5 74 70 74 87 0 3 -33 31 -74 61 -41 31 -77 63 -80
71 -8 21 20 71 44 79 23 7 23 7 116 -61 l71 -52 36 48 36 48 -75 57 c-42 31
-90 61 -107 66 -18 5 -32 8 -32 8 0 -1 -11 -4 -24 -6z"/>
<path d="M790 788 l-42 -153 43 -37 c24 -21 48 -38 53 -38 8 0 275 118 284
125 2 2 -17 19 -42 40 -35 29 -49 34 -63 27 -24 -14 -108 59 -108 95 0 17 -13
36 -41 59 l-42 35 -42 -153z m135 -52 l29 -24 -51 -25 -51 -26 16 49 c9 28 18
50 21 50 3 0 19 -11 36 -24z"/>
<path d="M2980 786 c-63 -52 -116 -98 -117 -103 -1 -4 5 -18 15 -30 l17 -22
74 60 c68 57 74 60 90 45 15 -16 12 -20 -34 -61 -27 -24 -53 -44 -57 -45 -15
0 -8 -27 12 -45 18 -17 21 -16 75 30 52 45 57 47 72 32 18 -18 19 -17 -79 -93
-45 -36 -46 -38 -31 -60 8 -13 19 -24 25 -24 12 0 223 172 225 185 2 7 -165
226 -171 225 -1 0 -53 -43 -116 -94z"/>
<path d="M1240 525 c-21 -23 -24 -23 -51 -10 -39 21 -42 19 -23 -16 15 -30 15
-32 -8 -56 l-23 -25 33 4 c30 3 36 -1 51 -31 l18 -34 7 42 c6 37 9 41 36 41
37 0 39 13 4 29 -22 10 -26 17 -22 46 2 19 3 35 3 35 -1 0 -12 -11 -25 -25z"/>
<path d="M2733 511 c5 -25 2 -33 -26 -50 l-32 -21 37 0 c33 0 37 -3 46 -37 l9
-38 13 33 c10 28 17 32 48 32 l37 1 -24 19 c-23 20 -24 30 -5 74 7 19 7 19
-24 1 -29 -18 -32 -18 -50 -2 -27 25 -35 21 -29 -12z"/>
<path d="M1474 369 c-53 -66 -94 -122 -93 -123 2 -2 26 -9 54 -15 43 -11 51
-10 62 5 11 15 17 15 70 2 42 -10 61 -20 68 -35 6 -15 25 -26 58 -34 26 -6 50
-9 53 -6 6 6 -54 289 -64 298 -6 5 -92 29 -106 29 -3 0 -49 -54 -102 -121z
m149 -46 l5 -42 -32 6 c-47 9 -50 17 -20 63 31 46 38 42 47 -27z"/>
<path d="M2330 473 c-14 -3 -28 -8 -32 -12 -6 -5 38 -270 45 -278 1 0 63 11
137 26 124 25 135 29 138 50 6 36 -8 41 -78 26 -101 -22 -93 -28 -114 90 -21
115 -17 112 -96 98z"/>
<path d="M1830 290 l0 -140 54 0 55 0 3 53 3 52 63 3 62 3 0 -56 0 -55 60 0
60 0 0 140 0 140 -60 0 -60 0 0 -45 0 -45 -65 0 -65 0 0 45 0 45 -55 0 -55 0
0 -140z"/>
</g>
</svg>
