<svg width="15px" height="15px" viewBox="0 0 25 26" fill="none" xmlns="http://www.w3.org/2000/svg">
<path fill-rule="evenodd" clip-rule="evenodd" d="M11.1386 0.991211L10.4216 1.12912C6.82433 1.82495 3.81309 4.55813 2.82805 8.02476C2.52256 9.10925 2.47269 9.56687 2.42904 11.9239L2.3854 14.1493L2.17967 14.7449C1.93029 15.4846 1.55622 16.0989 0.945247 16.7634C0.296866 17.4718 0.047488 17.9983 0.00384693 18.7443C-0.00862195 19.0578 0.0100814 19.4402 0.047488 19.6345C0.290631 20.7629 1.23827 21.7157 2.348 21.9477C2.55373 21.9915 3.54501 22.0166 4.9727 22.0166H7.26697L7.37296 22.4053C7.72208 23.6778 8.75077 24.8877 9.99765 25.4958C10.8206 25.897 11.2258 25.991 12.1485 25.991C13.065 25.9973 13.6261 25.8594 14.3929 25.4582C15.5899 24.8376 16.5875 23.634 16.9241 22.4053L17.0301 22.0166H19.3244C20.7521 22.0166 21.7433 21.9915 21.9491 21.9477C23.0588 21.7157 24.0064 20.7629 24.2496 19.6345C24.287 19.4402 24.3057 19.0578 24.2932 18.7443C24.2496 18.0234 23.9877 17.453 23.4204 16.8386C22.7533 16.1177 22.4603 15.6789 22.1985 14.9956C21.9179 14.2747 21.8743 13.9237 21.8743 12.2374C21.8743 9.29731 21.6374 8.03102 20.777 6.34473C20.2845 5.37307 19.7733 4.67097 18.9441 3.83096C17.5102 2.38914 15.7333 1.44256 13.7944 1.10405L13.1585 0.99748L11.1386 0.991211ZM13.2707 3.04736C16.1885 3.49244 18.7134 5.71785 19.5301 8.5576C19.792 9.47284 19.8231 9.79881 19.8543 11.8926C19.8792 14.0365 19.9354 14.5505 20.2284 15.4219C20.5339 16.3559 21.0451 17.2022 21.787 18.0109C22.2857 18.5625 22.3418 18.6816 22.292 19.1142C22.2608 19.4339 22.1112 19.6658 21.8119 19.8664L21.6062 20.0106L12.1485 20.0106H2.69089L2.47892 19.8664C2.14849 19.6408 1.9864 19.3524 1.9864 18.9825C1.9864 18.6127 2.03627 18.5187 2.57867 17.9419C3.23952 17.2273 3.75698 16.3497 4.0687 15.4031C4.36172 14.5255 4.42407 13.9863 4.4303 12.1496C4.43653 10.2063 4.48641 9.59821 4.69838 8.74566C4.89788 7.9558 5.46522 6.79608 6.00138 6.08771C7.71585 3.81215 10.5338 2.63362 13.2707 3.04736ZM14.1997 23.1513C14.5114 22.8504 14.954 22.2109 14.954 22.0605C14.954 22.0354 13.6947 22.0166 12.1485 22.0166C10.6086 22.0166 9.34304 22.0417 9.34304 22.0668C9.34304 22.2172 9.82933 22.9068 10.1348 23.1951C11.3131 24.2984 13.0588 24.2796 14.1997 23.1513Z" fill="white"/>
</svg>
