<?xml version="1.0" encoding="UTF-8"?>
<svg width="15px" height="15px" viewBox="0 0 84 74" version="1.1" xmlns="http://www.w3.org/2000/svg" xmlns:xlink="http://www.w3.org/1999/xlink">
    <title>logo</title>
    <defs>
        <path d="M59.4953655,42.1766897 C54.9257655,51.2450207 45.5309931,57.4653655 34.6833103,57.4653655 C23.8356276,57.4653655 14.4408552,51.2450207 9.87125517,42.1766897 L7.72602069,42.1766897 C12.4405931,52.3444552 22.7384138,59.3964 34.6833103,59.3964 C46.6282069,59.3964 56.9260276,52.3444552 61.6405517,42.1766897 L59.4953655,42.1766897 Z M9.99831724,16.9706069 C14.6135862,8.03766069 23.935269,1.93103448 34.6833103,1.93103448 C45.4313517,1.93103448 54.7530345,8.03766069 59.3682069,16.9706069 L61.5236276,16.9706069 C56.7573517,6.93698069 46.5304,0 34.6833103,0 C22.8362207,0 12.609269,6.93698069 7.84294483,16.9706069 L9.99831724,16.9706069 Z" id="path-1"></path>
        <filter x="-22.0%" y="-17.7%" width="143.9%" height="135.4%" filterUnits="objectBoundingBox" id="filter-2">
            <feMorphology radius="1.5" operator="dilate" in="SourceAlpha" result="shadowSpreadOuter1"></feMorphology>
            <feOffset dx="0" dy="0" in="shadowSpreadOuter1" result="shadowOffsetOuter1"></feOffset>
            <feGaussianBlur stdDeviation="2" in="shadowOffsetOuter1" result="shadowBlurOuter1"></feGaussianBlur>
            <feColorMatrix values="0 0 0 0 1   0 0 0 0 1   0 0 0 0 1  0 0 0 0.604569015 0" type="matrix" in="shadowBlurOuter1"></feColorMatrix>
        </filter>
        <path d="M8.51055172,31.1028828 L3.04157241,31.1028828 L3.0123269,27.915131 L7.53081241,27.915131 C8.33020276,27.915131 8.97848,27.8176138 9.47566345,27.6226759 C9.98257931,27.4276414 10.3530483,27.1449379 10.5869931,26.774469 C10.8209379,26.3943448 10.9379586,25.9263586 10.9379586,25.3707034 C10.9379586,24.7370345 10.8209379,24.2252138 10.5869931,23.8353379 C10.3530483,23.4453655 9.98257931,23.1626621 9.47566345,22.987131 C8.97848,22.8019448 8.33507862,22.7093517 7.54544,22.7093517 L4.76707724,22.7093517 L4.76707724,40.3006897 L0,40.3006897 L0,19.0096828 L7.54544,19.0096828 C8.82250069,19.0096828 9.96307586,19.1267034 10.9672138,19.3606483 C11.9713517,19.5946897 12.8242897,19.9553103 13.5262207,20.4428 C14.2379034,20.9301931 14.7788828,21.539531 15.1493517,22.2706207 C15.5198207,23.0018069 15.7050069,23.8644966 15.7050069,24.8588828 C15.7050069,25.7264966 15.510069,26.5356966 15.1200966,27.2862897 C14.7398759,28.0369793 14.1257103,28.6462207 13.2776,29.1142069 C12.4294897,29.5820966 11.2937517,29.8355448 9.87048276,29.8745517 L8.51055172,31.1028828 Z M8.32045103,40.3006897 L1.82786897,40.3006897 L3.55337379,36.6156966 L8.32045103,36.6156966 C9.05159862,36.6156966 9.64626069,36.4987724 10.1044276,36.2648276 C10.5626621,36.0307862 10.8989517,35.714 11.1133931,35.3142759 C11.327931,34.9146483 11.4351034,34.4661655 11.4351034,33.9690207 C11.4351034,33.3841103 11.3327586,32.8771172 11.128069,32.4482345 C10.9330345,32.0192552 10.6211724,31.6877931 10.1921931,31.4538483 C9.77296552,31.2199034 9.21245379,31.1028828 8.51055172,31.1028828 L4.24064828,31.1028828 L4.26989379,27.915131 L9.49028138,27.915131 L10.601669,29.1726207 C11.9566759,29.1434621 13.0388276,29.362731 13.847931,29.8307172 C14.6667862,30.2888552 15.2566207,30.893269 15.6173379,31.6439586 C15.9779586,32.3945517 16.1583172,33.1890759 16.1583172,34.027531 C16.1583172,35.4117931 15.8610345,36.5718621 15.2663724,37.5077379 C14.6717103,38.4338621 13.7894207,39.130869 12.6196,39.5988552 C11.459531,40.0667448 10.0264138,40.3006897 8.32045103,40.3006897 Z" id="path-3"></path>
        <filter x="-65.0%" y="-49.3%" width="230.0%" height="198.6%" filterUnits="objectBoundingBox" id="filter-4">
            <feMorphology radius="1.5" operator="dilate" in="SourceAlpha" result="shadowSpreadOuter1"></feMorphology>
            <feOffset dx="0" dy="0" in="shadowSpreadOuter1" result="shadowOffsetOuter1"></feOffset>
            <feGaussianBlur stdDeviation="2" in="shadowOffsetOuter1" result="shadowBlurOuter1"></feGaussianBlur>
            <feColorMatrix values="0 0 0 0 1   0 0 0 0 1   0 0 0 0 1  0 0 0 0.604569015 0" type="matrix" in="shadowBlurOuter1"></feColorMatrix>
        </filter>
        <path d="M33.7204966,36.6156966 L33.7204966,40.3006897 L22.3877379,40.3006897 L22.3877379,36.6156966 L33.7204966,36.6156966 Z M24.010869,19.0096828 L24.010869,40.3006897 L19.2438207,40.3006897 L19.2438207,19.0096828 L24.010869,19.0096828 Z M32.2582207,27.5787448 L32.2582207,31.1467172 L22.3877379,31.1467172 L22.3877379,27.5787448 L32.2582207,27.5787448 Z M33.7350759,19.0096828 L33.7350759,22.7093517 L22.3877379,22.7093517 L22.3877379,19.0096828 L33.7350759,19.0096828 Z" id="path-5"></path>
        <filter x="-72.5%" y="-49.3%" width="244.9%" height="198.6%" filterUnits="objectBoundingBox" id="filter-6">
            <feMorphology radius="1.5" operator="dilate" in="SourceAlpha" result="shadowSpreadOuter1"></feMorphology>
            <feOffset dx="0" dy="0" in="shadowSpreadOuter1" result="shadowOffsetOuter1"></feOffset>
            <feGaussianBlur stdDeviation="2" in="shadowOffsetOuter1" result="shadowBlurOuter1"></feGaussianBlur>
            <feColorMatrix values="0 0 0 0 1   0 0 0 0 1   0 0 0 0 1  0 0 0 0.604569015 0" type="matrix" in="shadowBlurOuter1"></feColorMatrix>
        </filter>
        <path d="M46.2670069,19.0096828 L46.2670069,40.3006897 L41.5145379,40.3006897 L41.5145379,19.0096828 L46.2670069,19.0096828 Z M52.7449517,19.0096828 L52.7449517,22.7093517 L35.1681931,22.7093517 L35.1681931,19.0096828 L52.7449517,19.0096828 Z" id="path-7"></path>
        <filter x="-59.7%" y="-49.3%" width="219.5%" height="198.6%" filterUnits="objectBoundingBox" id="filter-8">
            <feMorphology radius="1.5" operator="dilate" in="SourceAlpha" result="shadowSpreadOuter1"></feMorphology>
            <feOffset dx="0" dy="0" in="shadowSpreadOuter1" result="shadowOffsetOuter1"></feOffset>
            <feGaussianBlur stdDeviation="2" in="shadowOffsetOuter1" result="shadowBlurOuter1"></feGaussianBlur>
            <feColorMatrix values="0 0 0 0 1   0 0 0 0 1   0 0 0 0 1  0 0 0 0.604569015 0" type="matrix" in="shadowBlurOuter1"></feColorMatrix>
        </filter>
        <path d="M67.1631172,34.9194759 C67.1631172,34.422331 67.0852,33.9836 66.9291724,33.6033793 C66.7829931,33.2135034 66.5196966,32.8625379 66.1395724,32.5505793 C65.7691034,32.2386207 65.2524552,31.9412414 64.589531,31.6585379 C63.9363586,31.3758345 63.1077517,31.0883034 62.1036138,30.7958483 C61.0507172,30.4838897 60.1002621,30.1377517 59.2521517,29.7576276 C58.4040414,29.3676552 57.6777793,28.9240966 57.0733655,28.4268552 C56.4689517,27.9297103 56.0058897,27.3593793 55.6841793,26.7160552 C55.362469,26.0726345 55.2016138,25.3366207 55.2016138,24.5079172 C55.2016138,23.6793103 55.3722207,22.9140414 55.7134345,22.2121103 C56.0545517,21.5102759 56.5420414,20.9009379 57.1757103,20.3842897 C57.819131,19.8578897 58.5844,19.4484138 59.4715172,19.1559586 C60.3586345,18.8635034 61.3480966,18.7172276 62.4399034,18.7172276 C64.0387034,18.7172276 65.3938069,19.0243586 66.5051172,19.6385241 C67.6261793,20.2429379 68.4792138,21.0374621 69.0641241,22.0220966 C69.6490345,22.9968828 69.9414897,24.0400276 69.9414897,25.1513379 L67.1338621,25.1513379 C67.1338621,24.3519862 66.9632552,23.6452276 66.6221379,23.0310621 C66.2809241,22.4071448 65.7641793,21.9196552 65.0720966,21.5687862 C64.3799172,21.208069 63.5025517,21.0277103 62.4399034,21.0277103 C61.4358621,21.0277103 60.6071586,21.1788138 59.9540828,21.4810207 C59.3009103,21.7832276 58.8134207,22.1926069 58.4917103,22.7093517 C58.1797517,23.226 58.0238207,23.8158345 58.0238207,24.4786621 C58.0238207,24.9271448 58.1164138,25.3366207 58.3016966,25.7069931 C58.4966345,26.0677103 58.7939172,26.4040966 59.1936414,26.7160552 C59.6031172,27.0280138 60.1197655,27.3155448 60.7436828,27.5787448 C61.3773517,27.8419448 62.132869,28.0954897 63.0102345,28.3391862 C64.2190621,28.6804 65.2622069,29.0605241 66.1395724,29.4797517 C67.0169379,29.8989793 67.7382759,30.3717931 68.3037793,30.8981931 C68.8789379,31.4148414 69.3029931,32.0046759 69.5759448,32.6675034 C69.8586483,33.3206759 70,34.0616138 70,34.8902207 C70,35.7578345 69.8245655,36.5426069 69.4736,37.2445379 C69.1226345,37.946469 68.6205655,38.5459586 67.9673931,39.0431034 C67.3142207,39.5403448 66.5294483,39.9253931 65.6130759,40.1983448 C64.7064552,40.4615448 63.6926621,40.5931448 62.5715034,40.5931448 C61.5869655,40.5931448 60.6169103,40.4567172 59.6616276,40.1837655 C58.716,39.9108138 57.8532138,39.5013379 57.0733655,38.9554345 C56.3031724,38.409531 55.6841793,37.7368552 55.2161931,36.9374069 C54.7580552,36.1283034 54.5289379,35.1924276 54.5289379,34.1298759 L57.3365655,34.1298759 C57.3365655,34.8609655 57.4779172,35.4898069 57.7606207,36.0162069 C58.0433241,36.5328552 58.4283724,36.9618345 58.9157655,37.3030483 C59.4130069,37.6442621 59.9734897,37.8977103 60.5974069,38.0633931 C61.2310759,38.2194207 61.8891724,38.2973379 62.5715034,38.2973379 C63.5561379,38.2973379 64.389669,38.1609103 65.0720966,37.8879586 C65.7544276,37.6150069 66.2711724,37.2250345 66.6221379,36.7181379 C66.9827586,36.2111448 67.1631172,35.6116552 67.1631172,34.9194759 Z" id="path-9"></path>
        <filter x="-67.9%" y="-48.0%" width="235.7%" height="196.0%" filterUnits="objectBoundingBox" id="filter-10">
            <feMorphology radius="1.5" operator="dilate" in="SourceAlpha" result="shadowSpreadOuter1"></feMorphology>
            <feOffset dx="0" dy="0" in="shadowSpreadOuter1" result="shadowOffsetOuter1"></feOffset>
            <feGaussianBlur stdDeviation="2" in="shadowOffsetOuter1" result="shadowBlurOuter1"></feGaussianBlur>
            <feColorMatrix values="0 0 0 0 1   0 0 0 0 1   0 0 0 0 1  0 0 0 0.604569015 0" type="matrix" in="shadowBlurOuter1"></feColorMatrix>
        </filter>
    </defs>
    <g id="Page-1" stroke="none" stroke-width="1" fill="none" fill-rule="evenodd">
        <g id="Banner" transform="translate(-110.000000, -399.000000)">
            <g id="logo" transform="translate(117.000000, 406.000000)">
                <g id="Shape">
                    <use fill="black" fill-opacity="1" filter="url(#filter-2)" xlink:href="#path-1"></use>
                    <use fill="#000000" fill-rule="evenodd" xlink:href="#path-1"></use>
                </g>
                <g id="Shape" fill-rule="nonzero">
                    <use fill="black" fill-opacity="1" filter="url(#filter-4)" xlink:href="#path-3"></use>
                    <use fill="#000000" xlink:href="#path-3"></use>
                </g>
                <g id="Shape" fill-rule="nonzero">
                    <use fill="black" fill-opacity="1" filter="url(#filter-6)" xlink:href="#path-5"></use>
                    <use fill="#000000" xlink:href="#path-5"></use>
                </g>
                <g id="Shape" fill-rule="nonzero">
                    <use fill="black" fill-opacity="1" filter="url(#filter-8)" xlink:href="#path-7"></use>
                    <use fill="#000000" xlink:href="#path-7"></use>
                </g>
                <g id="Path" fill-rule="nonzero">
                    <use fill="black" fill-opacity="1" filter="url(#filter-10)" xlink:href="#path-9"></use>
                    <use fill="#000000" xlink:href="#path-9"></use>
                </g>
            </g>
        </g>
    </g>
</svg>