<?xml version="1.0" encoding="UTF-8"?>
<svg width="15px" height="15px" viewBox="0 0 25 26" version="1.1" xmlns="http://www.w3.org/2000/svg" xmlns:xlink="http://www.w3.org/1999/xlink">
    <title>bell</title>
    <g id="Page-1" stroke="none" stroke-width="1" fill="none" fill-rule="evenodd">
        <g id="Desktop-HD" transform="translate(-166.000000, -36.000000)" fill="#FFFFFF" fill-rule="nonzero">
            <g id="Left" transform="translate(79.000000, 36.991440)">
                <g id="bell" transform="translate(99.148537, 12.500000) scale(-1, 1) rotate(-180.000000) translate(-99.148537, -12.500000) translate(87.000000, 0.000000)">
                    <path d="M11.138558,25 L10.4215973,24.8620874 C6.82432504,24.1662555 3.81309019,21.4330781 2.82804856,17.9664564 C2.52256097,16.8819617 2.47268544,16.4243425 2.42904436,14.0672905 L2.38540327,11.8418823 L2.17966673,11.2463505 C1.9302891,10.5066374 1.55622266,9.89229933 0.945247473,9.22781125 C0.296865641,8.51944188 0.047488014,7.99286643 0.00384692919,7.24688453 C-0.00862195218,6.93344675 0.0100813699,6.55105267 0.047488014,6.35672125 C0.290631201,5.22834527 1.23826618,4.27549444 2.34799663,4.04355048 C2.55373317,3.99966919 3.54500924,3.97459417 4.97269616,3.97459417 L7.26697033,3.97459417 L7.37295582,3.58593133 C7.7220845,2.31337397 8.75076721,1.10350417 9.99765535,0.49543489 C10.8206015,0.0942345404 11.2258402,0.000203208469 12.1485374,0.000203208469 C13.0650002,-0.006065547 13.6260998,0.131847073 14.392936,0.533047423 C15.5899486,1.15365421 16.5874592,2.35725526 16.9241189,3.58593133 L17.0301044,3.97459417 L19.3243786,3.97459417 C20.7520655,3.97459417 21.7433416,3.99966919 21.9490781,4.04355048 C23.0588086,4.27549444 24.0064436,5.22834527 24.2495868,6.35672125 C24.2869934,6.55105267 24.3056967,6.93344675 24.2932278,7.24688453 C24.2495868,7.9677914 23.9877402,8.53824815 23.4204061,9.15258619 C22.753321,9.87349306 22.4603023,10.3123059 22.1984558,10.9956003 C21.9179059,11.7165072 21.8742649,12.0675575 21.8742649,13.7538527 C21.8742649,16.693899 21.6373561,17.9601876 20.7770033,19.6464828 C20.2844825,20.6181399 19.7732583,21.3202405 18.9440777,22.1602538 C17.5101564,23.6020675 15.7333408,24.5486496 13.7944297,24.8871624 L13.1585168,24.9937312 L11.138558,25 Z M13.2707367,22.9438482 C16.1884549,22.4987666 18.7134034,20.2733584 19.5301152,17.4336122 C19.7919617,16.5183739 19.8231339,16.1923986 19.8543061,14.0986342 C19.8792438,11.9547199 19.9353538,11.4406819 20.2283725,10.5693249 C20.5338601,9.63528036 21.0450842,8.78899837 21.7869827,7.98032891 C22.2857379,7.42867843 22.3418479,7.30957208 22.2919724,6.87702795 C22.2608002,6.55732142 22.1111736,6.32537747 21.8119204,6.1247773 L21.6061839,5.98059592 L12.1485374,5.98059592 L2.69089086,5.98059592 L2.47891988,6.1247773 C2.14849452,6.35045249 1.98639907,6.63881525 1.98639907,7.00867182 C1.98639907,7.37852839 2.03627459,7.47255972 2.57867093,8.04928522 C3.23952164,8.76392335 3.75698022,9.64154911 4.06870226,10.5881312 C4.36172097,11.465757 4.42406537,12.0048699 4.43029982,13.8416153 C4.43653426,15.7849295 4.48640978,16.3929987 4.69838077,17.2455495 C4.89788287,18.0354127 5.46521697,19.1951324 6.00137887,19.9035018 C7.71585006,22.17906 10.5338172,23.3575861 13.2707367,22.9438482 Z M14.9540357,3.93071288 C14.9540357,3.78026275 14.5113904,3.1408497 14.1996684,2.83994943 C13.0587657,1.71157345 11.3131223,1.69276718 10.134813,2.79606815 C9.82932545,3.0844309 9.34303908,3.773994 9.34303908,3.92444413 C9.34303908,3.94951915 10.6086305,3.97459417 12.1485374,3.97459417 C13.6946787,3.97459417 14.9540357,3.95578791 14.9540357,3.93071288 Z" id="Shape"></path>
                </g>
            </g>
        </g>
    </g>
</svg>