<?xml version="1.0" standalone="no"?>
<!DOCTYPE svg PUBLIC "-//W3C//DTD SVG 20010904//EN"
 "http://www.w3.org/TR/2001/REC-SVG-20010904/DTD/svg10.dtd">
<svg version="1.0" xmlns="http://www.w3.org/2000/svg"
 width="15px" height="15px" viewBox="0 0 520.000000 254.000000"
 preserveAspectRatio="xMidYMid meet">

<g transform="translate(0.000000,254.000000) scale(0.100000,-0.100000)"
fill="#000000" stroke="none">
<path d="M40 1265 l0 -1245 1250 0 1250 0 0 1245 0 1245 -1250 0 -1250 0 0
-1245z m1056 1025 c-3 -16 -9 -44 -12 -61 -6 -28 -4 -30 16 -24 12 4 32 8 44
9 13 2 29 6 36 11 11 7 22 9 68 14 7 0 10 6 7 11 -9 14 8 13 23 -2 9 -9 17 -6
37 12 13 12 22 27 19 31 -8 13 5 11 35 -7 23 -14 33 -14 71 -3 25 7 49 12 53
10 5 -1 41 -3 80 -5 78 -3 143 -29 164 -65 12 -19 11 -19 -18 -9 -35 12 -47 5
-30 -16 18 -21 10 -70 -11 -74 -10 -2 -31 6 -46 17 -35 24 -100 40 -164 41
-81 0 -74 -37 13 -65 28 -10 49 -23 49 -31 0 -21 46 -35 104 -32 28 1 65 -3
81 -9 17 -7 64 -22 105 -33 273 -79 473 -263 504 -466 6 -33 4 -31 -12 16 -53
157 -147 265 -297 342 -121 62 -132 65 -138 36 -4 -22 -5 -21 -17 8 -11 26
-22 33 -59 42 -30 7 -52 7 -64 0 -14 -7 -41 -4 -99 12 -70 19 -89 20 -163 11
-45 -5 -97 -16 -115 -23 -33 -14 -33 -14 90 -47 l124 -34 -40 -33 c-21 -19
-46 -32 -54 -29 -33 9 -151 27 -155 23 -3 -3 29 -28 70 -57 85 -59 239 -186
337 -279 l67 -63 18 63 c24 78 35 65 15 -18 l-14 -61 85 -102 c161 -193 258
-353 292 -486 25 -99 17 -159 -31 -222 -33 -43 -44 -36 -13 9 18 25 25 49 27
104 7 120 -51 253 -191 441 -40 54 -98 125 -129 158 l-55 59 -13 -39 c-27 -85
-94 -234 -103 -228 -5 3 -7 -3 -3 -13 16 -52 47 -197 44 -206 -3 -9 -112 -58
-130 -58 -4 0 -8 15 -8 33 l-1 32 -20 -25 c-12 -14 -16 -26 -10 -28 6 -2 11
-11 11 -19 0 -9 8 -22 18 -29 16 -13 16 -13 -3 -14 -12 0 -32 -17 -47 -40
l-28 -40 50 -25 c28 -14 50 -30 50 -35 0 -9 -84 24 -106 42 -8 6 -19 0 -32
-16 l-19 -25 -17 56 -16 57 32 33 32 33 -34 35 c-30 29 -37 32 -52 21 -17 -12
-17 -17 -3 -62 8 -27 15 -51 15 -54 0 -3 -25 -14 -55 -25 -64 -21 -64 -5 2
-175 51 -132 161 -350 180 -357 20 -8 15 -23 -7 -23 -31 0 -139 201 -215 400
-35 92 -41 100 -72 100 -14 0 -21 4 -18 10 3 5 15 10 26 10 19 0 25 11 12 23
-3 4 -14 0 -24 -8 -15 -15 -19 -12 -47 33 l-30 50 29 21 c38 28 37 43 -6 72
-33 23 -44 39 -27 39 4 0 17 -7 29 -15 21 -15 21 -14 13 16 -5 18 -11 33 -13
35 -2 2 -19 -12 -37 -31 -19 -19 -37 -35 -41 -35 -4 0 -17 15 -28 34 -15 24
-31 36 -55 40 -19 4 -114 29 -212 56 -98 28 -183 50 -190 50 -29 0 -75 -304
-63 -420 16 -158 41 -222 113 -288 25 -23 43 -42 39 -42 -19 0 -79 49 -129
108 -32 37 -48 58 -36 48 l22 -19 -16 49 c-11 34 -18 100 -21 214 -3 147 -1
176 20 267 l23 101 -97 37 c-54 20 -102 34 -107 31 -10 -6 -67 51 -98 99 -25
39 -38 17 -39 -69 0 -41 -3 -69 -7 -63 -24 38 14 297 67 458 39 116 158 309
247 397 74 75 262 186 391 231 l89 31 -26 -31 c-14 -17 -26 -35 -26 -40 0 -6
-4 -8 -9 -4 -25 15 -246 -71 -306 -118 -19 -15 -17 -16 30 -11 28 3 85 -1 127
-8 l78 -14 27 53 c25 48 33 55 71 65 46 11 53 21 72 96 7 26 16 42 26 42 12 0
14 -7 10 -30z m776 -177 c10 -24 23 -43 28 -43 6 0 10 -4 10 -10 0 -14 -12
-13 -66 11 -31 13 -44 23 -36 28 9 5 9 11 -1 26 -12 15 -12 21 2 35 21 22 38
9 63 -47z m8 -342 c0 -17 -4 -33 -10 -36 -6 -4 -10 8 -10 29 0 20 5 36 10 36
6 0 10 -13 10 -29z m98 -611 c10 -11 24 -39 31 -61 7 -23 15 -47 17 -53 4 -12
-65 -46 -92 -46 -9 0 -34 108 -34 149 0 35 50 41 78 11z m-50 -262 c-6 -18
-147 -71 -167 -63 -11 5 10 16 62 35 43 15 81 30 84 34 11 11 25 7 21 -6z
m-908 -137 c22 -6 23 -8 6 -14 -24 -9 -117 3 -110 14 6 10 67 10 104 0z m37
-87 c3 -9 -44 -34 -63 -34 -10 0 -2 20 12 35 18 17 45 17 51 -1z m230 -36 c-3
-8 -6 -5 -6 6 -1 11 2 17 5 13 3 -3 4 -12 1 -19z m632 -54 c7 -6 -71 -3 -98 5
-14 4 -26 11 -28 18 -3 7 16 6 59 -4 35 -8 65 -16 67 -19z m-343 11 c8 -21
-12 -68 -40 -94 l-23 -22 -13 46 c-11 41 -11 48 5 65 21 24 63 26 71 5z"/>
<path d="M1540 2263 c-54 -9 -121 -35 -117 -46 6 -19 56 -20 102 -3 23 9 49
14 57 11 8 -3 21 1 28 10 7 8 24 16 39 16 19 1 16 3 -14 10 -43 8 -55 9 -95 2z"/>
<path d="M727 2028 c25 -44 69 -49 109 -15 l28 25 -39 11 c-22 6 -57 11 -78
11 l-39 0 19 -32z"/>
<path d="M1273 2054 c-7 -3 -13 -17 -13 -31 0 -21 3 -23 23 -17 12 4 51 16 87
25 36 9 54 18 40 18 -14 1 -47 3 -75 6 -27 2 -56 2 -62 -1z"/>
<path d="M506 1934 c-3 -9 -6 -26 -6 -39 0 -25 29 -35 102 -35 l39 0 -21 30
c-36 51 -102 76 -114 44z"/>
<path d="M1260 1821 c0 -24 1 -25 70 -45 55 -16 55 -16 30 4 -14 10 -42 29
-62 40 -38 21 -38 21 -38 1z"/>
<path d="M1355 1723 c-16 -14 -30 -31 -31 -37 0 -6 -2 -19 -2 -29 -1 -10 -15
-23 -33 -29 -24 -8 -29 -15 -25 -32 2 -11 10 -52 16 -91 7 -38 21 -85 32 -104
12 -22 17 -43 13 -60 -6 -28 12 -116 45 -232 19 -64 21 -65 50 -61 58 8 74
-35 29 -83 -18 -20 -18 -21 7 -53 14 -17 33 -32 43 -32 9 0 32 20 49 45 l32
46 -15 101 c-17 114 -14 135 22 149 31 11 68 -8 78 -42 4 -12 11 -17 16 -12 4
4 31 64 59 133 l50 125 -78 75 c-87 84 -297 250 -315 250 -7 0 -25 -12 -42
-27z"/>
<path d="M565 1716 c-19 -13 -19 -15 0 -55 13 -29 26 -43 44 -47 44 -10 105
-25 124 -30 15 -5 14 0 -7 31 -14 19 -27 49 -31 65 -4 17 -15 35 -25 40 -27
14 -83 12 -105 -4z"/>
<path d="M515 1680 c-8 -13 1 -27 26 -41 20 -10 20 -9 4 20 -17 34 -21 36 -30
21z"/>
<path d="M1167 1592 c-46 -26 -47 -28 -45 -71 l3 -44 70 -23 c39 -13 72 -24
74 -24 2 0 0 21 -4 48 -13 92 -27 142 -38 141 -7 0 -33 -12 -60 -27z"/>
<path d="M1045 1538 c-63 -21 -61 -19 -40 -28 11 -4 35 -11 53 -14 31 -7 32
-6 32 23 0 34 -1 34 -45 19z"/>
<path d="M450 1442 c-18 -15 -22 -25 -16 -46 5 -22 21 -34 79 -60 119 -54 110
-56 142 19 15 36 26 67 24 69 -6 5 -172 36 -190 36 -9 0 -27 -8 -39 -18z"/>
<path d="M732 1401 c24 -31 161 -186 184 -207 12 -12 52 -32 88 -44 39 -13 73
-31 83 -45 l18 -24 27 24 27 23 -22 101 c-13 55 -25 103 -28 106 -3 3 -92 22
-197 44 -157 31 -190 35 -180 22z"/>
<path d="M683 1331 l-21 -59 101 -36 c56 -20 106 -36 110 -36 8 0 -150 182
-163 188 -3 1 -15 -24 -27 -57z"/>
<path d="M1151 1314 c0 -11 8 -50 17 -89 l17 -70 36 3 c48 4 66 -17 49 -57 -6
-16 -20 -37 -31 -47 -22 -20 -23 -45 -4 -94 13 -33 14 -34 14 -8 1 39 28 61
67 55 57 -9 60 8 26 135 -17 62 -33 125 -36 139 -5 24 -11 27 -64 32 -32 4
-66 9 -75 13 -12 4 -17 1 -16 -12z"/>
<path d="M2660 1265 l0 -1245 1250 0 1250 0 0 1245 0 1245 -1250 0 -1250 0 0
-1245z m1961 865 c21 -11 51 -39 66 -62 l28 -41 3 -319 3 -318 -76 0 -75 0 0
125 0 125 -65 0 -65 0 0 -125 0 -125 -75 0 -75 0 0 305 c0 321 3 349 48 398
59 65 193 83 283 37z m-1123 -62 l-3 -73 -127 -3 -128 -3 0 -74 0 -74 108 -3
107 -3 3 -67 3 -68 -111 0 -110 0 0 -155 0 -155 -75 0 -75 0 0 359 c0 314 2
362 16 375 13 13 46 16 205 16 l190 0 -3 -72z m202 -303 l0 -375 -75 0 -75 0
0 363 c0 269 3 366 12 375 7 7 39 12 75 12 l63 0 0 -375z m417 347 c51 -26 78
-63 94 -126 16 -65 -1 -144 -42 -187 l-30 -32 25 -21 c38 -32 56 -79 56 -143
-1 -104 -53 -177 -145 -202 -22 -6 -100 -11 -172 -11 l-133 0 0 359 c0 322 2
361 17 376 14 14 36 16 152 13 116 -3 142 -7 178 -26z m-1137 -1579 c21 -113
25 -115 45 -20 14 69 22 87 35 87 21 0 23 -5 40 -92 15 -73 24 -79 34 -21 14
77 27 113 41 113 11 0 8 -22 -14 -102 -35 -131 -52 -140 -75 -37 -9 39 -16 79
-16 87 0 34 -17 -7 -34 -81 -24 -107 -42 -102 -73 18 -27 106 -27 115 -9 115
9 0 18 -23 26 -67z m512 -23 c15 -46 28 -93 28 -103 0 -26 -24 -16 -28 11 -3
19 -10 22 -48 22 -38 0 -44 -3 -50 -25 -3 -14 -13 -25 -21 -25 -10 0 -13 6 -9
17 4 9 19 57 33 105 23 76 30 88 47 86 15 -2 26 -23 48 -88z m426 78 c15 -15
16 -60 2 -74 -8 -8 -6 -15 5 -24 19 -16 19 -64 0 -80 -9 -7 -38 -15 -65 -18
l-50 -5 0 107 0 106 48 0 c26 0 53 -5 60 -12z m312 -50 l0 -63 23 32 c12 18
28 33 35 33 14 0 9 -13 -16 -42 -13 -16 -12 -22 12 -59 15 -22 25 -44 21 -47
-7 -7 -38 26 -62 64 -10 17 -12 13 -12 -23 -1 -24 -5 -43 -11 -43 -6 0 -10 42
-10 105 0 63 4 105 10 105 6 0 10 -27 10 -62z m330 28 c0 -31 2 -33 27 -28 33
6 53 -19 53 -68 0 -54 -23 -81 -68 -77 l-37 2 -3 103 c-2 86 0 102 13 102 10
0 15 -10 15 -34z m258 -68 c-2 -70 -7 -103 -15 -106 -10 -3 -13 22 -13 102 0
89 3 106 15 106 13 0 15 -16 13 -102z m52 -3 c0 -63 -4 -105 -10 -105 -6 0
-10 42 -10 105 0 63 4 105 10 105 6 0 10 -42 10 -105z m-374 45 c8 0 14 -4 14
-10 0 -5 -7 -10 -15 -10 -11 0 -15 -12 -15 -50 0 -36 4 -52 15 -56 21 -8 19
-24 -3 -24 -30 0 -42 22 -42 76 0 32 -5 55 -12 58 -10 5 -10 7 0 12 6 3 12 12
12 19 0 21 25 24 28 3 2 -10 10 -18 18 -18z m-1218 -12 c7 -7 12 -25 12 -40 0
-26 -3 -28 -40 -28 -34 0 -40 -3 -40 -20 0 -27 29 -38 45 -17 13 18 35 23 35
8 0 -34 -67 -54 -89 -27 -21 26 -25 83 -7 111 18 27 63 34 84 13z m342 4 c0
-4 -10 -12 -22 -17 -19 -8 -23 -19 -26 -67 -4 -84 -22 -71 -22 15 l0 74 35 1
c19 1 35 -2 35 -6z m98 -4 c7 -7 12 -25 12 -40 0 -26 -3 -28 -40 -28 -34 0
-40 -3 -40 -20 0 -27 29 -38 45 -17 15 21 35 22 35 2 0 -19 -35 -37 -63 -33
-42 6 -60 94 -26 134 14 17 61 18 77 2z m342 -61 c3 -38 1 -72 -4 -75 -6 -3
-12 0 -14 6 -2 8 -8 8 -21 0 -25 -15 -49 -4 -57 27 -8 31 10 55 42 55 27 0 41
17 25 33 -9 9 -17 8 -32 -1 -24 -15 -34 -10 -25 13 4 12 16 15 43 13 l38 -3 5
-68z m117 58 c8 -23 -2 -28 -26 -13 -16 9 -23 10 -32 1 -9 -9 -4 -17 24 -33
43 -25 50 -41 31 -69 -24 -33 -73 -26 -87 12 -8 22 12 22 28 0 13 -17 45 -12
45 7 0 6 -16 20 -35 31 -36 22 -49 62 -22 72 27 11 68 6 74 -8z m231 3 c7 -7
12 -25 12 -40 0 -26 -3 -28 -40 -28 -43 0 -53 -17 -25 -40 13 -10 19 -9 35 5
23 21 39 12 24 -13 -15 -23 -58 -27 -78 -7 -19 20 -22 105 -4 123 7 7 24 12
38 12 14 0 31 -5 38 -12z m340 0 c7 -7 12 -39 12 -73 l0 -61 -37 -1 c-47 -1
-63 11 -63 47 0 28 15 40 51 40 12 0 19 7 19 20 0 13 -7 20 -20 20 -11 0 -20
-4 -20 -10 0 -5 -7 -10 -15 -10 -8 0 -15 4 -15 8 0 16 25 32 50 32 14 0 31 -5
38 -12z"/>
<path d="M4460 2000 c-17 -17 -20 -33 -20 -120 l0 -100 65 0 65 0 0 100 c0 87
-3 103 -20 120 -11 11 -31 20 -45 20 -14 0 -34 -9 -45 -20z"/>
<path d="M3920 1920 l0 -90 40 0 c74 0 110 33 110 101 0 48 -39 79 -100 79
l-50 0 0 -90z"/>
<path d="M3920 1616 l0 -96 50 0 c66 0 100 30 100 89 0 60 -32 92 -98 99 l-52
5 0 -97z"/>
<path d="M3427 525 c-10 -27 -17 -50 -17 -52 0 -2 14 -3 31 -3 29 0 30 1 23
33 -15 71 -20 74 -37 22z"/>
<path d="M3840 550 c0 -26 3 -30 29 -30 32 0 48 24 30 46 -6 8 -22 14 -35 14
-20 0 -24 -5 -24 -30z"/>
<path d="M3840 455 c0 -35 1 -36 33 -33 28 3 32 6 32 33 0 27 -4 30 -32 33
-32 3 -33 2 -33 -33z"/>
<path d="M4564 507 c-3 -8 -4 -32 -2 -53 2 -31 7 -39 23 -39 17 0 20 7 20 50
0 39 -4 50 -18 53 -9 2 -20 -3 -23 -11z"/>
<path d="M3217 513 c-16 -15 -6 -33 18 -33 18 0 25 5 25 20 0 20 -28 28 -43
13z"/>
<path d="M3657 513 c-16 -15 -6 -33 18 -33 18 0 25 5 25 20 0 20 -28 28 -43
13z"/>
<path d="M4008 463 c-20 -5 -24 -38 -8 -48 15 -9 40 14 40 36 0 19 -2 20 -32
12z"/>
<path d="M4346 505 c-9 -25 -9 -25 25 -25 24 0 30 4 27 18 -4 23 -44 28 -52 7z"/>
<path d="M4695 456 c-11 -8 -16 -19 -12 -30 10 -27 42 -15 45 17 4 30 -5 34
-33 13z"/>
</g>
</svg>
