<?xml version="1.0" encoding="UTF-8"?>
<svg width="15px" height="15px" viewBox="0 0 91 30" version="1.1" xmlns="http://www.w3.org/2000/svg" xmlns:xlink="http://www.w3.org/1999/xlink">
    <title>FIFA</title>
    <g id="Page-1" stroke="none" stroke-width="1" fill="none" fill-rule="evenodd">
        <g id="FIFA" transform="translate(0.000000, -0.000000)" fill="#000000" fill-rule="nonzero">
            <g id="Group" transform="translate(45.500000, 15.000000) scale(-1, 1) rotate(-180.000000) translate(-45.500000, -15.000000) translate(0.000000, 0.000000)">
                <path d="M0,15 L0,0 L4.71051295,0 L9.4210259,0 L9.4210259,5.41071429 L9.4210259,10.8214286 L12.6988319,10.8285714 L15.9766379,10.8392857 L17.2458101,14.1071429 L18.5149822,17.375 L13.9680041,17.3857143 L9.4210259,17.3928571 L9.4210259,20.4285714 L9.4210259,23.4642857 L14.9527679,23.4642857 L20.4809548,23.4642857 L20.5342814,23.5928571 C20.6053834,23.7607143 22.8628746,29.8571429 22.8842052,29.9392857 C22.9019807,29.9964286 22.3402743,30 11.4509904,30 L0,30 L0,15 Z" id="Path"></path>
                <path d="M25.8100559,21.1678571 C25.8100559,16.3071429 25.7993906,9.55714286 25.7851701,6.16785714 L25.7638395,0 L30.424581,0 L35.0888776,0 L35.0888776,15 L35.0888776,30 L30.4494667,30 L25.8100559,30 L25.8100559,21.1678571 Z" id="Path"></path>
                <path d="M41.5591671,15 L41.5591671,0 L46.2519045,0 L50.944642,0 L50.944642,5.41071429 L50.944642,10.8214286 L54.2224479,10.8285714 L57.503809,10.8392857 L58.7729812,14.0892857 C59.4733367,15.8785714 60.0457085,17.35 60.0457085,17.3678571 C60.0457085,17.3821429 57.9979685,17.3928571 55.4951752,17.3928571 L50.944642,17.3928571 L50.944642,20.4285714 L50.944642,23.4642857 L56.4870493,23.4642857 L62.0294566,23.4642857 L63.2417471,26.7142857 C63.9065515,28.5035714 64.4540376,29.9714286 64.4540376,29.9821429 C64.4540376,29.9928571 59.3026917,30 53.0066023,30 L41.5591671,30 L41.5591671,15 Z" id="Path"></path>
                <path d="M65.2254952,15.0214286 C62.2783139,6.78214286 59.8679533,0.0321428571 59.8679533,0.0214285714 C59.8679533,0.0107142857 61.8908075,0 64.3580498,0 L68.8517014,0 L69.4311833,2.01785714 L70.0106653,4.03571429 L75.2651092,4.03571429 L80.5195531,4.03571429 L80.5764347,3.85 C80.7755206,3.15357143 81.7247334,0.0321428571 81.7389538,0.0178571429 C81.7496191,0.00714285714 83.8364652,0.00357142857 86.3783647,0.00714285714 L91,0.0178571429 L85.6282377,15 L80.2564754,29.9821429 L75.4179787,29.9928571 L70.5830371,30 L65.2254952,15.0214286 Z M77.1208735,16.0642857 C78.1340782,12.6607143 78.9624175,9.85357143 78.9588738,9.83214286 C78.9588738,9.79642857 78.2051803,9.78571429 75.3113255,9.78571429 C72.4068055,9.78571429 71.6673438,9.79642857 71.6780091,9.83214286 C71.6886745,9.85357143 72.492128,12.6607143 73.4697816,16.0607143 C74.4438801,19.4642857 75.2508888,22.25 75.2615541,22.25 C75.2722194,22.25 76.1076689,19.4642857 77.1208735,16.0642857 Z" id="Shape"></path>
            </g>
        </g>
    </g>
</svg>