<?xml version="1.0" encoding="UTF-8"?>
<svg width="15px" height="15px" viewBox="0 0 60 52" version="1.1" xmlns="http://www.w3.org/2000/svg" xmlns:xlink="http://www.w3.org/1999/xlink">
    <title>icons8-live-60</title>
    <g id="Page-1" stroke="none" stroke-width="1" fill="none" fill-rule="evenodd">
        <g id="Desktop-HD---Mega-menu" transform="translate(-1055.000000, -186.000000)" fill="#930000" fill-rule="nonzero">
            <g id="Megamenu" transform="translate(0.000000, 160.000000)">
                <g id="icons8-live-60" transform="translate(1055.000000, 26.000000)">
                    <g id="Group" transform="translate(30.000000, 26.000000) scale(-1, 1) rotate(-180.000000) translate(-30.000000, -26.000000) translate(0.000000, 0.000000)">
                        <path d="M29,49.5 C29,48.1 29.5,47 30,47 C30.6,47 31,48.1 31,49.5 C31,50.9 30.6,52 30,52 C29.5,52 29,50.9 29,49.5 Z" id="Path"></path>
                        <path d="M19,46.5 C19.7,45.7 20.7,45 21.2,45 C21.8,45 21.7,45.7 21,46.5 C20.3,47.3 19.3,48 18.8,48 C18.2,48 18.3,47.3 19,46.5 Z" id="Path"></path>
                        <path d="M39,46.5 C38.3,45.7 38.2,45 38.8,45 C39.3,45 40.3,45.7 41,46.5 C41.7,47.3 41.8,48 41.2,48 C40.7,48 39.7,47.3 39,46.5 Z" id="Path"></path>
                        <path d="M1.7,39.9 C0.2,39 0,37.2 0,26 C0,14.2 0.2,13 1.9,12 C4.5,10.6 55.5,10.6 58.1,12 C59.8,13 60,14.2 60,25.5 C60,41.9 58.2,42.1 57.8,25.8 L57.5,13.5 L30,13.5 L2.5,13.5 L2.5,26 L2.5,38.5 L27.7,38.8 C43.4,38.9 53,39.4 53,40 C53,41.4 4.1,41.3 1.7,39.9 Z" id="Path"></path>
                        <path d="M10,26 L10,20 L13.6,20 C15.7,20 16.9,20.4 16.5,21 C16.2,21.6 15,22 13.9,22 C12.3,22 12,22.7 12,27 C12,29.8 11.6,32 11,32 C10.4,32 10,29.3 10,26 Z" id="Path"></path>
                        <path d="M21.7,31.3 C20.6,30.3 20.9,21.2 22,20.5 C22.6,20.1 23,22.2 23,25.9 C23,32.1 22.9,32.5 21.7,31.3 Z" id="Path"></path>
                        <path d="M28.6,29.8 C32.1,18.7 32.9,18.1 35.4,25 C37.6,31.1 36.9,34 34.5,28.5 L32.8,24.5 L31.3,28.3 C29.7,32.3 27.4,33.5 28.6,29.8 Z" id="Path"></path>
                        <path d="M42,26 L42,20 L46,20 C48.2,20 50,20.5 50,21 C50,21.6 48.7,22 47,22 C45,22 44,22.5 44,23.5 C44,24.3 44.7,25 45.5,25 C46.3,25 47,25.5 47,26 C47,26.6 46.3,27 45.5,27 C44.7,27 44,27.7 44,28.5 C44,29.5 45,30 47,30 C48.7,30 50,30.5 50,31 C50,31.6 48.2,32 46,32 L42,32 L42,26 Z" id="Path"></path>
                        <path d="M19,5.5 C18.3,4.7 18.2,4 18.8,4 C19.3,4 20.3,4.7 21,5.5 C21.7,6.3 21.8,7 21.2,7 C20.7,7 19.7,6.3 19,5.5 Z" id="Path"></path>
                        <path d="M39,5.5 C39.7,4.7 40.7,4 41.2,4 C41.8,4 41.7,4.7 41,5.5 C40.3,6.3 39.3,7 38.8,7 C38.2,7 38.3,6.3 39,5.5 Z" id="Path"></path>
                        <path d="M29,2.5 C29,1.1 29.5,0 30,0 C30.6,0 31,1.1 31,2.5 C31,3.9 30.6,5 30,5 C29.5,5 29,3.9 29,2.5 Z" id="Path"></path>
                    </g>
                </g>
            </g>
        </g>
    </g>
</svg>