<?xml version="1.0" standalone="no"?>
<!DOCTYPE svg PUBLIC "-//W3C//DTD SVG 20010904//EN"
 "http://www.w3.org/TR/2001/REC-SVG-20010904/DTD/svg10.dtd">
<svg version="1.0" xmlns="http://www.w3.org/2000/svg"
 width="15px" height="15px" viewBox="0 0 128.000000 80.000000"
 preserveAspectRatio="xMidYMid meet">
<metadata>
Created by potrace 1.16, written by Peter Selinger 2001-2019
</metadata>
<g transform="translate(0.000000,80.000000) scale(0.100000,-0.100000)"
fill="#000000" stroke="none">
<path d="M0 400 l0 -400 160 0 160 0 0 41 0 40 38 -3 c35 -3 37 -5 40 -40 l3
-38 440 0 439 0 0 400 0 400 -320 0 -320 0 -1 -22 c-1 -13 -2 -35 -2 -50 -1
-22 -4 -25 -15 -15 -8 6 -18 21 -23 34 -7 19 -16 23 -48 23 -22 0 -44 6 -51
15 -10 13 -52 15 -256 15 l-244 0 0 -400z m558 353 c-10 -2 -26 -2 -35 0 -10
3 -2 5 17 5 19 0 27 -2 18 -5z m82 -176 c0 -2 -10 -12 -22 -23 l-23 -19 19 23
c18 21 26 27 26 19z m200 -322 c11 -13 8 -15 -15 -15 -23 0 -26 2 -15 15 7 8
14 15 15 15 1 0 8 -7 15 -15z m95 5 c3 -6 -1 -7 -9 -4 -18 7 -21 14 -7 14 6 0
13 -4 16 -10z m-835 -3 c0 -2 -10 -12 -22 -23 l-23 -19 19 23 c18 21 26 27 26
19z m487 -114 c-3 -10 -5 -4 -5 12 0 17 2 24 5 18 2 -7 2 -21 0 -30z m-210
-45 c-3 -8 -6 -5 -6 6 -1 11 2 17 5 13 3 -3 4 -12 1 -19z m491 8 c-2 0 -14
-10 -27 -21 l-25 -20 20 26 c10 15 23 25 27 22 5 -3 7 -6 5 -7z m152 -20 c0
-2 -8 -10 -17 -17 -16 -13 -17 -12 -4 4 13 16 21 21 21 13z m-855 -36 c-3 -5
-12 -10 -18 -10 -7 0 -6 4 3 10 19 12 23 12 15 0z m610 0 c-3 -5 -11 -10 -16
-10 -6 0 -7 5 -4 10 3 6 11 10 16 10 6 0 7 -4 4 -10z m182 -6 c-3 -3 -12 -4
-19 -1 -8 3 -5 6 6 6 11 1 17 -2 13 -5z"/>
<path d="M520 790 c0 -5 9 -10 20 -10 11 0 20 5 20 10 0 6 -9 10 -20 10 -11 0
-20 -4 -20 -10z"/>
</g>
</svg>
