<?xml version="1.0" encoding="UTF-8"?>
<svg width="15px" height="15px" viewBox="0 0 197 40" version="1.1" xmlns="http://www.w3.org/2000/svg" xmlns:xlink="http://www.w3.org/1999/xlink">
    <title>linkedin</title>
    <g id="Page-1" stroke="none" stroke-width="1" fill="none" fill-rule="evenodd">
        <g id="Desktop-HD---Single-post" transform="translate(-513.000000, -540.000000)">
            <g id="Share-Icons" transform="translate(79.000000, 540.000000)">
                <g id="linkedin" transform="translate(434.000000, 0.000000)">
                    <rect id="Rectangle" fill="#2867B2" x="0" y="0" width="197" height="40"></rect>
                    <g id="link" transform="translate(84.000000, 5.000000)">
                        <path d="M31,3.875 C31,1.73630273 29.2636973,0 27.125,0 L3.875,0 C1.73630273,0 0,1.73630273 0,3.875 L0,27.125 C0,29.2636973 1.73630273,31 3.875,31 L27.125,31 C29.2636973,31 31,29.2636973 31,27.125 L31,3.875 Z" id="background" fill="#2867B2"></path>
                        <g id="shapes" transform="translate(3.000000, 3.000000)" fill="#FFFFFF">
                            <rect id="rect11" x="0.303181516" y="7.48243359" width="5.14562573" height="15.5175664"></rect>
                            <path d="M2.91073455,0 C1.15026575,0 0,1.16037965 0,2.68126502 C0,4.17020837 1.11528558,5.3625902 2.84263421,5.3625902 L2.87587438,5.3625902 C4.67006335,5.3625902 5.78684893,4.17020837 5.78684893,2.68126502 C5.75354877,1.16037965 4.67018335,0 2.91073455,0 L2.91073455,0 Z" id="path13-0" fill-rule="nonzero"></path>
                            <path d="M18.0767704,7.1175366 C15.3473567,7.1175366 14.1247906,8.62242088 13.4401872,9.67945516 L13.4401872,7.48243359 L8.29588148,7.48243359 C8.36410182,8.93799121 8.29588148,22.9999398 8.29588148,22.9999398 L13.4401272,22.9999398 L13.4401272,14.3338468 C13.4401272,13.8699957 13.4733674,13.406265 13.609748,13.0747537 C13.9810299,12.1483749 14.8280541,11.1887909 16.2493412,11.1887909 C18.1100706,11.1887909 18.8555143,12.6122862 18.8555143,14.6974204 L18.8555143,22.9999398 L24,22.9999398 L24,14.1012897 C24,9.33483022 21.4616873,7.1175366 18.0767704,7.1175366 L18.0767704,7.1175366 Z" id="path15" fill-rule="nonzero"></path>
                        </g>
                    </g>
                </g>
            </g>
        </g>
    </g>
</svg>