<svg width="15px" height="15px" viewBox="0 0 25 25" fill="none" xmlns="http://www.w3.org/2000/svg">
<path d="M11.0868 0.0377941C7.58785 0.410976 4.42599 2.17026 2.30236 4.90915C1.95179 5.3623 1.04166 6.78839 1.04166 6.88835C1.04166 6.915 1.47987 7.14824 2.01246 7.40813L2.99001 7.88794L3.20574 7.50809C3.94059 6.21529 5.1541 4.8625 6.27996 4.07615C7.40583 3.28314 8.88226 2.65007 10.2643 2.36352C11.2081 2.1636 12.8531 2.11695 13.8037 2.25689C16.1026 2.59676 18.0779 3.56303 19.6825 5.12906C21.2128 6.62179 22.1634 8.33442 22.6286 10.4336C22.7567 11.0267 22.7769 11.3199 22.7769 12.4927C22.7769 13.6656 22.7567 13.9588 22.6286 14.5519C22.1634 16.651 21.2128 18.3637 19.6825 19.8564C18.0779 21.4224 16.1026 22.3887 13.8037 22.7286C12.8531 22.8685 11.2081 22.8219 10.2643 22.622C8.88226 22.3354 7.40583 21.7023 6.27996 20.9093C5.1541 20.123 3.94059 18.7702 3.20574 17.4774L2.99001 17.0975L2.01246 17.5773C1.47987 17.8372 1.04166 18.0705 1.04166 18.0971C1.04166 18.1971 1.95179 19.6232 2.30236 20.0763C5.70017 24.4679 11.5385 26.1339 16.7835 24.208C18.5364 23.5682 19.9724 22.6486 21.3342 21.2958C23.296 19.35 24.4758 17.0242 24.914 14.2254C25.0286 13.4923 25.0286 11.4931 24.914 10.7601C24.4758 7.96124 23.296 5.63552 21.3342 3.68965C19.3791 1.75043 17.0532 0.570911 14.3363 0.137754C13.534 0.0111389 11.8284 -0.0421734 11.0868 0.0377941Z" fill="white"/>
<path d="M7.71736 8.05617C7.31501 8.47554 6.97861 8.84757 6.97861 8.88139C6.97861 8.91521 7.51948 9.50368 8.17909 10.1801L9.38616 11.4179H0L0 13.5824H9.38616L8.17909 14.8202C7.51948 15.4966 6.97861 16.0851 6.97861 16.1189C6.97861 16.1595 7.31501 16.5315 7.72396 16.9509L8.46272 17.7085L11.0022 15.1043L13.5417 12.5002L11.0022 9.896L8.46272 7.29183L7.71736 8.05617Z" fill="white"/>
</svg>
