<?xml version="1.0" encoding="UTF-8"?>
<svg width="15px" height="15px" viewBox="0 0 25 25" version="1.1" xmlns="http://www.w3.org/2000/svg" xmlns:xlink="http://www.w3.org/1999/xlink">
    <title>log-in</title>
    <g id="Page-1" stroke="none" stroke-width="1" fill="none" fill-rule="evenodd">
        <g id="Desktop-HD" transform="translate(-271.000000, -37.000000)" fill="#FFFFFF" fill-rule="nonzero">
            <g id="Left" transform="translate(79.000000, 36.991440)">
                <g id="log-in" transform="translate(204.500000, 12.508560) scale(-1, 1) rotate(-180.000000) translate(-204.500000, -12.508560) translate(192.000000, 0.008560)">
                    <path d="M11.0868068,24.9622049 C7.587862,24.5890232 4.42600246,22.8297377 2.30236546,20.09085 C1.95179681,19.6377007 1.04166667,18.2116132 1.04166667,18.1116538 C1.04166667,18.084998 1.47987748,17.8517594 2.01247215,17.5918649 L2.99001935,17.1120598 L3.2057539,17.4919055 C3.94059972,18.7847138 5.15410658,20.1374977 6.27997127,20.923845 C7.40583597,21.7168563 8.88226932,22.3499325 10.2643188,22.6364828 C11.2081575,22.8364016 12.8531334,22.8830494 13.8037138,22.7431062 C16.1026351,22.4032442 18.0779546,21.43697 19.6824804,19.8709393 C21.2128473,18.3782122 22.1634277,16.6655744 22.6286053,14.566427 C22.7566977,13.9733345 22.7769229,13.6801203 22.7769229,12.5072633 C22.7769229,11.3344063 22.7566977,11.041192 22.6286053,10.4480995 C22.1634277,8.34895206 21.2128473,6.63631428 19.6824804,5.14358718 C18.0779546,3.57755653 16.1026351,2.61128229 13.8037138,2.27142032 C12.8531334,2.13147715 11.2081575,2.17812488 10.2643188,2.37804368 C8.88226932,2.66459397 7.40583597,3.2976702 6.27997127,4.09068147 C5.15410658,4.87702877 3.94059972,6.2298127 3.2057539,7.52262099 L2.99001935,7.90246672 L2.01247215,7.42266159 C1.47987748,7.16276714 1.04166667,6.92952853 1.04166667,6.90287269 C1.04166667,6.80291328 1.95179681,5.37682579 2.30236546,4.9236765 C5.70018466,0.532126695 11.538501,-1.13386337 16.7835473,0.792021145 C18.5363905,1.43176133 19.9723737,2.35138784 21.334198,3.70417177 C23.2960341,5.65004816 24.4758325,7.97577029 24.9140433,10.7746336 C25.0286522,11.5076692 25.0286522,13.5068573 24.9140433,14.2398929 C24.4758325,17.0387562 23.2960341,19.3644783 21.334198,21.3103547 C19.3791036,23.2495672 17.0532155,24.4290881 14.3363085,24.8622455 C13.5340456,24.9888608 11.8283943,25.0421725 11.0868068,24.9622049 Z" id="Path"></path>
                    <path d="M7.71736483,16.9439935 C7.31500649,16.5246212 6.97860854,16.1525974 6.97860854,16.1187771 C6.97860854,16.0849567 7.51948368,15.4964827 8.17908751,14.8200758 L9.38616253,13.5822511 L0,13.5822511 L0,11.4177489 L9.38616253,11.4177489 L8.17908751,10.1799242 C7.51948368,9.50351732 6.97860854,8.91504329 6.97860854,8.88122294 C6.97860854,8.84063853 7.31500649,8.46861472 7.72396087,8.04924242 L8.46271716,7.29166667 L11.0021919,9.89583333 L13.5416667,12.5 L11.0021919,15.1041667 L8.46271716,17.7083333 L7.71736483,16.9439935 Z" id="Path"></path>
                </g>
            </g>
        </g>
    </g>
</svg>