<?xml version="1.0" standalone="no"?>
<!DOCTYPE svg PUBLIC "-//W3C//DTD SVG 20010904//EN"
 "http://www.w3.org/TR/2001/REC-SVG-20010904/DTD/svg10.dtd">
<svg version="1.0" xmlns="http://www.w3.org/2000/svg"
 width="15px" height="15px" viewBox="0 0 210.000000 210.000000"
 preserveAspectRatio="xMidYMid meet">
<metadata>
Created by potrace 1.16, written by Peter Selinger 2001-2019
</metadata>
<g transform="translate(0.000000,210.000000) scale(0.100000,-0.100000)"
fill="#000000" stroke="none">
<path d="M1038 1951 c-7 -10 -17 -19 -23 -21 -25 -5 5 -43 36 -45 21 -2 21 -1
4 11 -10 7 -22 11 -26 8 -5 -3 -9 0 -9 6 0 14 50 32 69 25 14 -6 14 -8 -2 -19
-16 -13 -16 -14 0 -27 15 -12 16 -12 8 1 -8 13 -6 13 7 2 13 -11 21 -11 39 -2
14 8 19 8 15 1 -5 -7 6 -11 32 -11 38 0 40 -2 46 -37 4 -21 8 -48 9 -60 3 -33
17 -28 17 5 0 48 -31 126 -62 155 -25 23 -38 27 -88 27 -46 0 -62 -4 -72 -19z"/>
<path d="M1055 1920 c-8 -13 5 -13 25 0 13 8 13 10 -2 10 -9 0 -20 -4 -23 -10z"/>
<path d="M1346 1894 c-5 -14 -9 -14 -24 -3 -16 13 -16 13 0 -7 14 -16 15 -23
6 -32 -9 -9 -9 -15 0 -24 10 -9 16 -8 30 6 9 11 11 16 5 12 -8 -5 -13 -1 -13
10 0 14 3 15 12 6 7 -7 21 -12 33 -13 19 0 19 -1 1 -8 -14 -5 -5 -10 34 -19
28 -7 57 -9 62 -5 6 3 9 2 6 -3 -3 -5 1 -15 9 -23 13 -12 14 -11 8 10 -4 13
-14 30 -24 37 -9 7 -14 16 -12 20 6 10 -79 52 -105 52 -12 0 -25 -7 -28 -16z
m-1 -54 c3 -5 1 -10 -4 -10 -6 0 -11 5 -11 10 0 6 2 10 4 10 3 0 8 -4 11 -10z"/>
<path d="M1302 1874 c10 -10 20 -16 22 -13 3 3 -5 11 -17 18 -21 13 -21 12 -5
-5z"/>
<path d="M1223 1758 c0 -45 1 -49 13 -33 7 10 10 23 6 29 -3 6 -5 18 -4 28 2
9 -1 19 -6 22 -4 2 -8 -18 -9 -46z"/>
<path d="M1552 1768 c14 -42 16 -44 60 -63 l38 -15 -11 27 c-14 39 -30 55 -46
49 -8 -3 -11 -2 -8 4 5 8 -24 30 -39 30 -3 0 0 -15 6 -32z"/>
<path d="M365 1760 c3 -5 0 -7 -7 -5 -8 3 -31 -14 -53 -37 -22 -23 -33 -37
-24 -30 9 6 20 8 24 4 5 -4 5 -1 1 6 -4 6 -3 12 2 12 9 0 22 -23 22 -36 0 -3
-10 -2 -22 2 -27 8 -23 2 11 -16 15 -8 21 -8 17 -1 -4 7 1 11 13 11 12 0 21 4
21 9 0 15 64 19 97 6 32 -13 32 -13 22 11 -11 30 -26 46 -56 62 -27 15 -77 16
-68 2z"/>
<path d="M1519 1753 c-4 -29 -5 -76 -2 -65 3 6 8 10 12 8 4 -3 8 1 8 9 0 8 -4
15 -9 15 -5 0 -6 9 -3 20 3 11 4 20 1 20 -3 0 -6 -3 -7 -7z"/>
<path d="M1680 1653 c0 -4 5 -21 12 -39 9 -25 20 -35 42 -40 17 -3 37 -11 44
-16 6 -6 12 -7 12 -3 0 5 9 -2 20 -15 27 -32 25 -15 -5 37 -29 48 -125 107
-125 76z"/>
<path d="M1661 1642 c-1 -7 -10 -31 -20 -52 -11 -22 -16 -42 -11 -45 4 -3 13
9 19 25 11 33 26 41 18 10 -3 -11 -1 -20 4 -20 11 0 11 48 -1 75 -5 11 -9 14
-9 7z"/>
<path d="M1215 1559 c4 -11 2 -19 -4 -19 -6 0 -11 5 -11 11 0 5 -5 7 -10 4 -6
-4 -8 -11 -5 -16 4 -5 3 -14 -1 -20 -4 -8 -9 -7 -15 2 -6 10 -9 8 -9 -8 0 -25
-15 -38 -26 -22 -4 7 -13 -2 -22 -22 -11 -26 -16 -30 -19 -16 -3 9 -8 17 -12
17 -13 0 -31 -24 -31 -42 0 -10 -4 -18 -10 -18 -5 0 -10 5 -10 11 0 21 -45 4
-48 -18 -4 -25 -22 -32 -22 -8 0 25 -30 17 -42 -12 -11 -27 -12 -27 -15 -5 -5
27 -29 29 -38 2 -7 -23 -25 -27 -25 -5 0 22 -21 18 -27 -5 -3 -11 -9 -20 -14
-20 -5 0 -9 9 -9 20 0 25 -15 26 -29 3 -9 -16 -12 -16 -22 -3 -8 11 -12 12
-16 3 -7 -19 -23 -16 -23 4 0 15 -2 14 -15 -3 -14 -19 -14 -19 -15 1 0 15 -3
16 -12 7 -15 -15 -32 -16 -23 -2 3 6 2 10 -4 10 -5 0 -12 -6 -14 -12 -3 -8 -6
-5 -6 6 -1 15 -4 16 -16 6 -12 -10 -15 -10 -16 1 -3 39 -28 -75 -28 -132 -2
-139 85 -306 163 -315 20 -2 23 1 18 19 -5 20 -4 21 12 8 16 -13 18 -13 16 0
-5 33 -1 42 15 29 13 -10 15 -9 15 8 0 12 5 24 10 27 6 3 10 -1 10 -10 0 -9 5
-13 10 -10 6 3 10 15 10 25 0 24 20 37 30 20 10 -17 30 -4 30 21 0 20 26 27
32 8 6 -17 38 1 38 21 0 25 19 35 26 16 9 -22 31 -20 39 4 7 23 25 27 25 5 0
-23 27 -18 35 8 6 19 8 19 12 5 5 -22 33 -24 33 -3 0 8 7 15 16 15 10 0 14 -6
10 -15 -3 -9 0 -15 8 -15 8 0 16 7 20 15 3 8 10 15 17 15 6 0 9 -7 5 -15 -3
-8 -1 -15 3 -15 5 0 11 7 15 15 3 8 10 15 15 15 6 0 8 -7 5 -15 -8 -20 6 -19
22 3 13 16 13 16 14 -2 0 -15 3 -16 15 -6 12 10 15 9 15 -6 0 -16 2 -17 10 -4
8 12 12 12 18 3 7 -10 12 -10 27 1 30 21 33 155 6 244 -25 84 -98 187 -136
194 -21 5 -25 2 -20 -13z m-85 -260 c0 -23 -32 -29 -50 -11 -10 12 -11 17 -2
20 7 2 12 10 12 18 0 12 4 12 20 2 11 -7 20 -20 20 -29z m89 28 c13 5 14 3 4
-7 -10 -11 -10 -17 0 -29 10 -12 9 -14 -4 -9 -9 4 -21 2 -26 -3 -5 -5 -14 0
-21 11 -7 12 -8 20 -2 20 5 0 10 8 10 17 0 13 3 14 11 6 6 -6 19 -9 28 -6z
m97 -27 c0 -9 -11 -21 -23 -27 -18 -9 -23 -8 -23 2 0 7 -6 16 -12 19 -10 5
-10 7 0 12 6 3 12 12 12 19 0 10 5 11 23 2 12 -6 23 -18 23 -27z m-288 14 c5
3 10 -5 10 -18 0 -31 -31 -40 -47 -15 -7 12 -7 19 -1 19 5 0 10 8 10 18 0 13
2 14 9 3 5 -7 13 -11 19 -7z m-82 -48 c2 -26 -21 -30 -44 -9 -11 10 -11 15 0
26 18 20 43 10 44 -17z m-94 -10 c3 2 6 -7 6 -21 0 -14 -3 -23 -6 -21 -3 3
-11 1 -19 -5 -10 -9 -13 -8 -13 5 0 9 -6 16 -12 17 -10 0 -10 2 0 6 6 2 12 12
12 20 0 12 3 13 13 4 8 -6 16 -8 19 -5z m-78 -50 c6 2 11 -6 11 -20 0 -13 -4
-22 -8 -19 -4 3 -14 -1 -22 -7 -12 -10 -15 -9 -15 4 0 9 -5 16 -10 16 -6 0 -5
8 2 20 7 11 16 16 21 11 5 -5 15 -7 21 -5z m-62 -50 c10 5 10 4 1 -6 -6 -7 -9
-18 -7 -25 8 -21 -32 -24 -45 -4 -7 12 -7 19 -1 19 5 0 10 7 10 16 0 13 3 14
15 4 8 -6 20 -8 27 -4z"/>
<path d="M1650 1550 c0 -6 7 -10 15 -10 8 0 15 2 15 4 0 2 -7 6 -15 10 -8 3
-15 1 -15 -4z"/>
<path d="M530 1531 c0 -6 4 -13 10 -16 6 -3 7 1 4 9 -7 18 -14 21 -14 7z"/>
<path d="M1831 1445 c-1 -38 -5 -87 -10 -108 -8 -31 -6 -39 9 -47 17 -9 19 -4
19 78 0 48 -4 101 -8 117 -8 25 -9 17 -10 -40z"/>
<path d="M1816 1260 c8 -31 24 -50 24 -29 0 8 -7 24 -16 35 -14 18 -15 18 -8
-6z"/>
<path d="M1801 1234 c0 -11 3 -14 6 -6 3 7 2 16 -1 19 -3 4 -6 -2 -5 -13z"/>
<path d="M1156 1083 l7 -28 -25 23 c-30 27 -42 28 -28 2 14 -26 -2 -26 -25 0
-20 22 -43 16 -24 -6 18 -21 2 -30 -19 -11 -10 10 -27 17 -37 17 -17 0 -17 -1
-1 -19 25 -27 0 -39 -27 -13 -16 15 -27 18 -37 12 -12 -7 -12 -12 -2 -22 27
-27 2 -40 -27 -14 -12 11 -21 12 -31 5 -13 -8 -13 -11 3 -23 23 -18 5 -31 -22
-16 -28 15 -39 12 -17 -5 24 -19 12 -39 -15 -24 -12 6 -23 8 -26 5 -3 -3 2 -8
11 -12 9 -3 14 -10 11 -15 -3 -4 -18 -4 -33 2 -22 8 -25 8 -14 -2 19 -20 14
-31 -9 -24 -42 14 12 -30 61 -49 137 -54 313 -18 425 86 57 51 84 98 74 123
-7 20 -8 20 -9 0 -1 -11 -4 -15 -6 -8 -3 7 -11 10 -19 7 -7 -3 -15 3 -18 13
-4 16 -5 16 -6 1 -1 -21 -21 -24 -21 -4 0 8 -5 18 -11 22 -8 4 -9 0 -4 -15 4
-12 2 -21 -4 -21 -6 0 -11 6 -11 14 0 8 -6 16 -14 19 -10 4 -12 0 -9 -14 7
-25 -14 -25 -22 1 -10 31 -26 24 -19 -7z"/>
<path d="M230 505 l0 -255 66 0 c48 0 65 3 62 13 -3 6 -25 13 -51 15 l-47 3 0
240 c0 206 -2 239 -15 239 -13 0 -15 -35 -15 -255z"/>
<path d="M376 733 c2 -16 18 -128 33 -251 16 -123 32 -226 35 -229 16 -16 25
27 51 232 15 121 29 232 32 248 4 20 1 27 -9 27 -12 0 -19 -30 -33 -137 -35
-271 -34 -270 -60 -63 -22 185 -25 200 -41 200 -9 0 -12 -8 -8 -27z"/>
<path d="M580 505 l0 -255 43 0 c64 0 77 19 77 113 0 64 -3 80 -20 94 -19 17
-19 17 0 30 18 13 20 26 20 124 0 128 -11 149 -80 149 l-40 0 0 -255z m90 122
c6 -115 0 -137 -35 -137 l-25 0 0 121 0 120 28 -3 27 -3 5 -98z m-12 -176 c9
-5 12 -30 10 -87 -3 -78 -3 -79 -30 -82 l-28 -3 0 90 c0 80 2 91 18 91 9 0 23
-4 30 -9z"/>
<path d="M750 505 c0 -220 2 -255 15 -255 12 0 15 18 15 105 l0 105 30 0 c43
0 50 23 50 154 0 132 -7 146 -71 146 l-39 0 0 -255z m78 213 c16 -16 16 -200
0 -216 -7 -7 -20 -12 -30 -12 -16 0 -18 11 -18 120 0 109 2 120 18 120 10 0
23 -5 30 -12z"/>
</g>
</svg>
