<?xml version="1.0" standalone="no"?>
<!DOCTYPE svg PUBLIC "-//W3C//DTD SVG 20010904//EN"
 "http://www.w3.org/TR/2001/REC-SVG-20010904/DTD/svg10.dtd">
<svg version="1.0" xmlns="http://www.w3.org/2000/svg"
 width="15px" height="15px" viewBox="0 0 494.000000 508.000000"
 preserveAspectRatio="xMidYMid meet">

<g transform="translate(0.000000,508.000000) scale(0.100000,-0.100000)"
fill="#000000" stroke="none">
<path d="M2399 5016 c-206 -195 -530 -317 -849 -320 -151 -1 -208 11 -345 71
-144 63 -328 189 -392 269 l-30 37 -6 -69 c-17 -170 -89 -362 -180 -475 -111
-138 -368 -281 -549 -305 l-46 -6 40 -72 c172 -307 251 -554 265 -819 12 -246
-31 -479 -150 -797 -111 -299 -133 -425 -124 -705 4 -126 12 -210 27 -280 120
-565 491 -938 1158 -1161 158 -53 373 -106 682 -169 151 -31 300 -63 330 -72
75 -21 161 -67 200 -108 l33 -34 46 38 c104 85 139 97 526 176 315 64 497 108
642 155 428 139 723 324 932 585 209 261 316 627 297 1015 -8 168 -33 298 -87
448 -170 476 -184 540 -184 832 0 178 3 219 23 308 36 161 86 292 183 481 49
96 88 175 86 176 -1 1 -37 9 -80 18 -165 35 -341 130 -462 252 -66 65 -89 97
-127 175 -51 104 -86 226 -95 332 -3 37 -8 68 -11 68 -2 0 -37 -31 -77 -69
-170 -161 -421 -283 -615 -298 -153 -12 -426 40 -591 111 -116 50 -229 121
-322 201 l-83 72 -65 -61z m141 -301 c150 -99 349 -177 539 -210 111 -20 341
-19 456 1 153 26 332 95 434 167 l35 24 23 -69 c44 -130 140 -250 288 -361 84
-62 202 -126 273 -147 23 -7 42 -15 42 -16 0 -2 -18 -48 -39 -103 -140 -351
-190 -573 -191 -846 0 -134 16 -265 41 -344 6 -20 41 -112 77 -206 122 -318
155 -477 155 -735 0 -85 -5 -186 -12 -225 -60 -358 -249 -638 -571 -848 -266
-172 -587 -281 -1125 -382 -104 -20 -217 -43 -249 -51 -74 -19 -174 -64 -219
-98 -31 -24 -36 -25 -47 -11 -47 57 -186 104 -455 156 -418 79 -644 141 -873
240 -590 253 -887 699 -859 1289 11 229 49 390 157 665 86 221 110 319 117
485 12 282 -42 540 -192 911 -36 91 -41 109 -27 109 32 0 168 66 258 125 164
107 294 260 335 397 l21 68 41 -29 c112 -76 276 -139 441 -167 114 -20 393
-14 503 11 169 37 343 110 478 199 39 25 72 46 74 46 2 0 34 -20 71 -45z"/>
<path d="M2385 4504 c-165 -89 -424 -163 -640 -184 -182 -17 -384 10 -560 74
-38 14 -70 24 -72 23 -1 -2 69 -48 155 -104 174 -112 770 -498 1332 -863 573
-372 1814 -1175 1829 -1185 8 -5 12 -4 9 1 -21 35 -163 499 -184 597 -65 311
-34 636 96 1014 22 65 43 125 46 134 4 11 -12 24 -58 48 -88 46 -182 118 -259
198 -62 64 -139 170 -139 192 0 23 -23 20 -89 -13 -178 -90 -451 -139 -659
-117 -217 23 -451 89 -623 178 -52 26 -96 48 -99 49 -3 1 -41 -18 -85 -42z"/>
<path d="M866 4264 c-70 -76 -165 -150 -258 -199 -38 -20 -68 -39 -68 -43 0
-4 16 -52 36 -107 50 -140 110 -379 129 -520 17 -116 17 -146 2 -433 l-2 -34
490 -317 c270 -175 931 -602 1470 -951 539 -348 1034 -668 1100 -711 138 -89
115 -90 254 9 268 192 427 449 470 756 15 108 14 288 -1 308 -7 9 -470 312
-1028 674 -1039 673 -1697 1099 -2223 1441 -164 106 -301 193 -305 192 -4 0
-33 -29 -66 -65z m324 -349 l96 -62 189 -478 190 -478 5 351 5 352 88 -56 87
-56 0 -529 c0 -291 -2 -529 -5 -529 -2 0 -60 36 -127 79 l-123 80 -169 448
c-93 246 -172 453 -175 458 -3 6 -8 -143 -11 -331 l-5 -341 -82 53 -83 54 0
530 c0 422 3 530 13 524 6 -5 55 -36 107 -69z m1048 -679 l72 -47 0 -199 0
-198 208 -130 207 -130 3 189 c1 104 5 189 7 189 3 0 43 -25 90 -55 l85 -55 0
-531 0 -531 -22 14 c-13 8 -53 34 -90 57 l-68 43 0 222 0 221 -202 125 c-111
69 -205 126 -209 128 -5 2 -10 -91 -11 -208 l-3 -211 -92 58 -92 58 -1 534 0
533 23 -14 c12 -9 55 -36 95 -62z m1069 -694 l83 -55 2 -425 3 -426 240 -156
240 -155 3 -109 3 -109 -23 15 c-13 8 -170 111 -350 227 l-328 213 0 529 0
530 23 -12 c12 -7 59 -37 104 -67z"/>
<path d="M576 2496 c-132 -402 -131 -398 -130 -621 0 -173 3 -199 27 -290 133
-501 583 -828 1340 -975 423 -82 534 -110 614 -156 l41 -24 44 24 c84 47 178
71 613 156 195 38 416 102 544 157 l43 19 -578 374 c-319 206 -937 606 -1374
889 -437 282 -863 558 -946 611 l-151 98 -87 -262z"/>
</g>
</svg>
