<?xml version="1.0" encoding="UTF-8"?>
<svg width="15px" height="15px" viewBox="0 0 26 25" version="1.1" xmlns="http://www.w3.org/2000/svg" xmlns:xlink="http://www.w3.org/1999/xlink">
    <title>User</title>
    <g id="Page-1" stroke="none" stroke-width="1" fill="none" fill-rule="evenodd">
        <g id="Desktop-HD" transform="translate(-79.000000, -37.000000)" fill="#FFFFFF" fill-rule="nonzero">
            <g id="Left" transform="translate(79.000000, 36.991440)">
                <g id="User" transform="translate(13.000000, 12.508560) scale(-1, 1) rotate(-180.000000) translate(-13.000000, -12.508560) translate(0.000000, 0.008560)">
                    <path d="M12.0246364,24.9855243 C11.9280256,24.9757504 11.6280237,24.9415417 11.3636153,24.91222 C7.34155607,24.472394 3.62458351,22.048464 1.58050283,18.5347429 C0.838125277,17.2543605 0.299138831,15.6660999 0.0703238308,14.0680655 C-0.0313717251,13.3692308 -0.0212021695,11.4926398 0.0906629419,10.7938052 C0.548292943,7.93004919 1.77372439,5.58919745 3.84322895,3.62464129 C4.16356995,3.32165004 4.63136951,2.91603272 4.88052362,2.7205545 C8.13986618,0.218433216 12.4771816,-0.622123152 16.5246648,0.467667952 C21.2484233,1.73827641 24.894209,5.56476267 25.7738756,10.1780488 C26.5671009,14.3075263 25.2501435,18.3979081 22.1891072,21.3447424 C20.1602809,23.2897507 17.7195875,24.467507 14.8212642,24.8926722 C14.3127864,24.9659765 12.4212491,25.0295069 12.0246364,24.9855243 Z M14.0101121,22.9550232 C17.8359748,22.6050843 21.2232035,20.2672981 22.9046336,16.8116516 C23.4212469,15.7569746 23.7136695,14.8238043 23.9086179,13.5990181 C24.0304607,12.8505377 24.0304607,11.188328 23.9086179,10.4155463 C23.6161953,8.54920556 22.8997599,6.87241505 21.7544379,5.36087346 C21.4035308,4.9040088 20.5896211,4 20.5213892,4 C20.5018944,4 20.4336624,4.16038866 20.3751779,4.35479915 C19.7903326,6.17253727 18.3233458,7.86876883 16.5639364,8.75819684 L15.9985859,9.04495232 L16.3884828,9.35600911 C17.2998666,10.0704677 17.967565,11.1057036 18.2794824,12.2867473 C18.3818303,12.670708 18.3964515,12.8310967 18.3964515,13.5990181 C18.3964515,14.4009614 18.3818303,14.5127475 18.2599876,14.9550313 C17.7677428,16.7241668 16.5103255,18.0753198 14.7801583,18.6925731 C13.7274369,19.0716735 12.294566,19.0716735 11.2418446,18.6925731 C9.51167741,18.0753198 8.25426012,16.7241668 7.76201537,14.9550313 C7.64017261,14.5127475 7.62555148,14.4009614 7.62555148,13.5990181 C7.62555148,12.8310967 7.64017261,12.670708 7.74252053,12.2867473 C8.054438,11.1057036 8.72213632,10.0704677 9.63352017,9.35600911 L10.023417,9.04495232 L9.45806659,8.75819684 C7.70353085,7.86876883 6.21704918,6.15309622 5.64682506,4.34993889 C5.58346682,4.16038866 5.52010859,4 5.50061375,4 C5.44700293,4 4.74518863,4.75820093 4.41865004,5.16646296 C3.09787452,6.8140919 2.24984891,8.88456366 2.05002678,10.9696162 C1.70399334,14.5078872 3.17098018,18.1044813 5.89538429,20.3936649 C8.15678592,22.2891672 11.1053807,23.2223376 14.0101121,22.9550232 Z M13.9621068,17.882346 C15.3109375,17.5559754 16.3682627,16.5620283 16.8326952,15.1922606 C17.0204445,14.6285294 17.0550299,13.6988675 16.9117476,13.0856863 C16.7190575,12.2796496 16.3534404,11.6516334 15.7457254,11.0780122 C15.2961152,10.6477963 14.846505,10.3758208 14.2338492,10.1631853 C13.784239,10.00989 13.7348313,10 12.9986563,10 C12.2624813,10 12.2130736,10.00989 11.7634633,10.1631853 C11.1508076,10.3758208 10.7011974,10.6477963 10.2515872,11.0780122 C9.64387224,11.6516334 9.27825513,12.2796496 9.08556503,13.0856863 C8.95216419,13.6543624 8.97686805,14.6186394 9.14485429,15.1428105 C9.7920954,17.2048797 11.8771011,18.3916821 13.9621068,17.882346 Z M14.2311321,8.87303741 C16.0283019,8.49941866 17.5707547,7.3210826 18.4150943,5.66853814 C18.6745283,5.16558982 18.9198113,4.46146218 18.9716981,4.09263341 L19,3.8579242 L18.6556604,3.63279495 C18.1745283,3.31665601 17.0801887,2.7801778 16.509434,2.58378846 C15.9103774,2.37302917 15.1981132,2.19579976 14.5330189,2.08563013 C13.8018868,1.97067051 12.1792453,1.97067051 11.4669811,2.09042011 C9.97169811,2.33470929 8.62264151,2.83286763 7.43867925,3.58010513 L7,3.8579242 L7.02358491,4.07826346 C7.05660377,4.37524246 7.31132075,5.13205993 7.51415094,5.54399855 C8.10377358,6.74149454 9.11320755,7.76176113 10.3018868,8.37008909 C10.8915094,8.6670681 11.7311321,8.9065673 12.4575472,8.98799702 C12.8301887,9.0263169 13.7688679,8.96883709 14.2311321,8.87303741 Z" id="Shape"></path>
                </g>
            </g>
        </g>
    </g>
</svg>