<svg width="15px" height="15px" viewBox="0 0 16 16" fill="none" xmlns="http://www.w3.org/2000/svg">
<path fill-rule="evenodd" clip-rule="evenodd" d="M14.65 16L16 14.65L11.45 10.05H10.7L10.45 9.8C11.35 8.8 11.9 7.45 11.9 5.95C11.9 2.65 9.25 0 5.95 0C2.65 0 0 2.65 0 5.95C0 9.25 2.65 11.9 6 11.95C7.45 11.95 8.8 11.4 9.85 10.5L10.1 10.75V11.45L14.65 16ZM5.95 1.85C8.2 1.85 10.05 3.7 10.05 5.95C10.05 8.2 8.2 10.05 5.95 10.05C3.7 10.05 1.85 8.2 1.85 5.95C1.85 3.7 3.7 1.85 5.95 1.85Z" fill="#F1F2F3"/>
</svg>
