<?xml version="1.0" encoding="UTF-8"?>
<svg width="15px" height="15px" viewBox="0 0 197 40" version="1.1" xmlns="http://www.w3.org/2000/svg" xmlns:xlink="http://www.w3.org/1999/xlink">
    <title>twitter</title>
    <g id="Page-1" stroke="none" stroke-width="1" fill="none" fill-rule="evenodd">
        <g id="Desktop-HD---Single-post" transform="translate(-730.000000, -540.000000)">
            <g id="Share-Icons" transform="translate(79.000000, 540.000000)">
                <g id="twitter" transform="translate(651.000000, 0.000000)">
                    <rect id="Rectangle" fill="#1DA1F2" x="0" y="0" width="197" height="40"></rect>
                    <path d="M93.063375,33 C105.138875,33 111.743687,22.9961877 111.743687,14.3208549 C111.743687,14.0367477 111.743687,13.7538904 111.7245,13.472283 C113.009375,12.5429036 114.118562,11.392288 115,10.0741204 C113.801812,10.6050247 112.530625,10.9531279 111.229125,11.1069933 C112.599375,10.2867946 113.625563,8.99575027 114.1155,7.47584526 C112.826813,8.24048497 111.41675,8.77945128 109.946562,9.06937066 C108.705187,7.74939066 106.971438,7 105.1595,7 C101.554375,7 98.5879375,9.96631461 98.5879375,13.5710893 C98.5879375,14.0711831 98.6450625,14.5697144 98.7580625,15.0568089 C93.4819375,14.792388 88.5593125,12.2969189 85.2271875,8.19773764 C83.4944375,11.1804262 84.391,15.0458096 87.2598125,16.9613149 C86.215125,16.9303794 85.192875,16.648522 84.28,16.1396163 L84.28,16.2227986 C84.280875,19.335979 86.4954375,22.0418724 89.5471875,22.6582714 C88.5806875,22.9218174 87.566375,22.960315 86.58275,22.7708893 C87.4406875,25.4385351 89.9146875,27.2773577 92.7165,27.3299794 C90.392125,29.1565527 87.5191875,30.1487407 84.562875,30.1458034 C84.0405,30.1448034 83.518625,30.1131804 83,30.0510593 C86.002125,31.9775014 89.49625,32.999625 93.063375,32.9948753" id="Path" fill="#FFFFFF" fill-rule="nonzero"></path>
                </g>
            </g>
        </g>
    </g>
</svg>