<svg width="15px" height="15px" viewBox="0 0 64 52" fill="none" xmlns="http://www.w3.org/2000/svg">
<path d="M64 6.15607C61.6453 7.20119 59.1147 7.90504 56.4587 8.22231C59.1707 6.59865 61.2533 4.02584 62.232 0.959803C59.696 2.46349 56.8853 3.5566 53.8933 4.14582C51.5013 1.59434 48.0853 0 44.3093 0C35.832 0 29.6027 7.90771 31.5173 16.1167C20.608 15.5701 10.9333 10.3445 4.456 2.40217C1.016 8.3023 2.672 16.0207 8.51733 19.9292C6.368 19.8599 4.34133 19.2707 2.57333 18.2869C2.42933 24.3683 6.78933 30.0578 13.104 31.3242C11.256 31.8255 9.232 31.9428 7.17333 31.5482C8.84267 36.7631 13.6907 40.557 19.44 40.6637C13.92 44.9908 6.96533 46.9237 0 46.1025C5.81067 49.8271 12.7147 52 20.128 52C44.5067 52 58.28 31.4149 57.448 12.952C60.0133 11.0991 62.24 8.78753 64 6.15607Z" fill="white"/>
</svg>
