<svg width="15px" height="15px" viewBox="0 0 25 25" fill="none" xmlns="http://www.w3.org/2000/svg">
<path fill-rule="evenodd" clip-rule="evenodd" d="M11.1995 0.0560684C11.3607 0.0372791 11.5022 0.0207844 11.5622 0.0144749C11.9435 -0.0295086 13.7623 0.0340233 14.2512 0.107328C17.0381 0.532494 19.3849 1.71025 21.3357 3.65526C24.279 6.60209 25.5453 10.6925 24.7826 14.822C23.9367 19.4352 20.4312 23.2617 15.8891 24.5323C11.9973 25.6221 7.82679 24.7816 4.69281 22.2794C4.45324 22.084 4.00343 21.6783 3.69541 21.3754C1.7055 19.4108 0.527205 17.07 0.0871759 14.2062C-0.0203867 13.5074 -0.0301651 11.6308 0.0676191 10.9319C0.287633 9.3339 0.80589 7.74564 1.51971 6.46526C3.48518 2.95154 7.05919 0.527607 10.9266 0.08778L11.1995 0.0560684ZM21.9046 8.18835C20.2232 4.7327 16.836 2.39492 13.0101 2.04498C10.1054 1.77766 7.15679 2.71083 4.89538 4.60633C2.17098 6.89552 0.703993 10.4921 1.05003 14.0304C1.24985 16.1154 2.09787 18.1859 3.41865 19.8335C3.74519 20.2418 4.447 21 4.50061 21C4.52011 21 4.58347 20.8396 4.64682 20.6501C5.21705 18.8469 6.70353 17.1312 8.45807 16.2418L9.02342 15.955L8.63352 15.644C7.72214 14.9295 7.05444 13.8943 6.74252 12.7133C6.64017 12.3293 6.62555 12.1689 6.62555 11.401C6.62555 10.599 6.64017 10.4873 6.76202 10.045C7.25426 8.27583 8.51168 6.92468 10.2418 6.30743C11.2946 5.92833 12.7274 5.92833 13.7802 6.30743C15.5103 6.92468 16.7677 8.27583 17.26 10.045C17.3818 10.4873 17.3965 10.599 17.3965 11.401C17.3965 12.1689 17.3818 12.3293 17.2795 12.7133C16.9676 13.8943 16.2999 14.9295 15.3885 15.644L14.9986 15.955L15.5639 16.2418C17.3233 17.1312 18.7903 18.8275 19.3752 20.6452C19.4337 20.8396 19.5019 21 19.5214 21C19.5896 21 20.4035 20.096 20.7544 19.6391C21.8998 18.1276 22.6162 16.4508 22.9086 14.5845C23.0305 13.8117 23.0305 12.1495 22.9086 11.401C22.7137 10.1762 22.4212 9.24303 21.9046 8.18835ZM12.9621 7.11765C14.3109 7.44403 15.3683 8.43797 15.8327 9.80774C16.0204 10.3715 16.055 11.3011 15.9117 11.9143C15.7191 12.7204 15.3534 13.3484 14.7457 13.922C14.2961 14.3522 13.8465 14.6242 13.2338 14.8368C12.7842 14.9901 12.7348 15 11.9987 15C11.2625 15 11.2131 14.9901 10.7635 14.8368C10.1508 14.6242 9.7012 14.3522 9.25159 13.922C8.64387 13.3484 8.27826 12.7204 8.08556 11.9143C7.95216 11.3456 7.97687 10.3814 8.14485 9.85719C8.7921 7.79512 10.8771 6.60832 12.9621 7.11765ZM17.4151 19.3315C16.5708 17.6789 15.0283 16.5006 13.2311 16.127C12.7689 16.0312 11.8302 15.9737 11.4575 16.012C10.7311 16.0934 9.89151 16.3329 9.30189 16.6299C8.11321 17.2382 7.10377 18.2585 6.51415 19.456C6.31132 19.8679 6.0566 20.6248 6.02358 20.9217L6 21.1421L6.43868 21.4199C7.62264 22.1671 8.9717 22.6653 10.467 22.9096C11.1792 23.0293 12.8019 23.0293 13.533 22.9144C14.1981 22.8042 14.9104 22.627 15.5094 22.4162C16.0802 22.2198 17.1745 21.6833 17.6557 21.3672L18 21.1421L17.9717 20.9074C17.9198 20.5385 17.6745 19.8344 17.4151 19.3315Z" fill="white"/>
</svg>
