<?xml version="1.0" standalone="no"?>
<!DOCTYPE svg PUBLIC "-//W3C//DTD SVG 20010904//EN"
 "http://www.w3.org/TR/2001/REC-SVG-20010904/DTD/svg10.dtd">
<svg version="1.0" xmlns="http://www.w3.org/2000/svg"
 width="15px" height="15px" viewBox="0 0 128.000000 74.000000"
 preserveAspectRatio="xMidYMid meet">
<metadata>
Created by potrace 1.16, written by Peter Selinger 2001-2019
</metadata>
<g transform="translate(0.000000,74.000000) scale(0.100000,-0.100000)"
fill="#000000" stroke="none">
<path d="M216 634 c-4 -10 3 -25 18 -39 l24 -23 6 23 c3 13 3 31 0 39 -8 21
-40 21 -48 0z"/>
<path d="M135 500 c3 -24 0 -30 -14 -30 -20 0 -61 -40 -61 -60 0 -10 5 -9 19
4 23 21 34 8 25 -31 -13 -58 0 -97 71 -217 19 -32 35 -62 35 -67 0 -5 5 -9 10
-9 6 0 4 13 -5 30 -9 17 -13 35 -10 40 3 5 -1 23 -10 40 -26 50 -29 200 -5
267 18 52 18 54 1 39 -24 -22 -34 -20 -21 4 9 17 8 20 -14 20 -21 0 -24 -4
-21 -30z"/>
<path d="M278 360 c28 -90 33 -100 58 -100 20 0 26 8 40 56 19 65 38 61 49
-11 6 -41 9 -45 35 -45 27 0 31 5 50 66 24 80 24 74 2 74 -14 0 -22 -13 -31
-52 -13 -47 -15 -50 -27 -33 -8 10 -14 29 -14 41 0 30 -25 53 -50 47 -18 -5
-40 -54 -40 -90 0 -32 -20 -8 -34 40 -11 39 -20 53 -34 53 -17 0 -17 -3 -4
-46z"/>
<path d="M570 333 c0 -58 3 -73 15 -73 11 0 15 12 15 50 0 28 4 50 8 50 5 0
28 -22 51 -50 33 -39 49 -50 72 -50 l29 0 0 76 c0 66 -2 75 -17 72 -14 -2 -19
-16 -23 -57 l-5 -54 -45 54 c-34 41 -52 54 -72 54 l-28 1 0 -73z"/>
<path d="M810 333 l0 -73 68 0 c37 0 77 3 89 6 26 7 36 39 17 55 -8 7 -11 21
-7 40 5 24 1 30 -22 39 -15 6 -54 9 -86 8 l-59 -3 0 -72z m134 38 c11 -16 -22
-32 -61 -29 -27 2 -39 8 -41 21 -3 14 4 17 47 17 27 0 52 -4 55 -9z m14 -63
c-3 -8 -27 -14 -61 -16 -46 -2 -57 0 -57 13 0 12 13 15 61 15 44 0 60 -3 57
-12z"/>
<path d="M1057 338 c-21 -37 -37 -70 -37 -73 0 -14 37 -3 48 15 9 15 23 20 57
20 34 0 47 -5 55 -20 12 -22 40 -27 40 -7 0 6 -15 39 -34 71 -29 51 -38 59
-63 60 -27 1 -34 -6 -66 -66z m83 13 c14 -28 13 -31 -15 -31 -18 0 -25 5 -25
18 0 35 24 43 40 13z"/>
</g>
</svg>
